<svg width="207" height="32" viewBox="0 0 207 32" fill="none" xmlns="http://www.w3.org/2000/svg">
<path d="M17.4461 0.867505L21.61 9.27806C21.6883 9.43252 21.8021 9.56593 21.9421 9.66815C22.082 9.77036 22.2442 9.8381 22.4153 9.86582L31.7056 11.2189C31.9027 11.2485 32.0877 11.3317 32.2402 11.4597C32.3928 11.5877 32.5069 11.7553 32.5699 11.9441C32.6329 12.1328 32.6426 12.3352 32.5975 12.5289C32.5524 12.7227 32.4545 12.9004 32.3146 13.042L25.5775 19.5902C25.4507 19.7085 25.3555 19.8562 25.3006 20.0205C25.2457 20.1849 25.2329 20.3607 25.2632 20.5312L26.8543 29.765C26.8864 29.9613 26.8634 30.1625 26.7881 30.3466C26.7128 30.5306 26.5881 30.6903 26.4275 30.808C26.2669 30.9256 26.0767 30.9967 25.8782 31.0133C25.6797 31.0299 25.4805 30.9916 25.3025 30.9023L16.9944 26.5496C16.8415 26.4637 16.669 26.4189 16.4935 26.4189C16.3181 26.4189 16.1455 26.4637 15.9926 26.5496L7.66481 30.9023C7.48686 30.9916 7.28765 31.0299 7.08914 31.0133C6.89063 30.9967 6.70042 30.9256 6.53985 30.808C6.37927 30.6903 6.25458 30.5306 6.17925 30.3466C6.10392 30.1625 6.08096 29.9613 6.11308 29.765L7.70413 20.5312C7.73449 20.3607 7.72161 20.1849 7.66672 20.0205C7.61184 19.8562 7.51662 19.7085 7.3898 19.5902L0.672433 13.042C0.52544 12.9048 0.420793 12.7287 0.370335 12.5342C0.319877 12.3397 0.325812 12.1348 0.387598 11.9436C0.449384 11.7524 0.564391 11.5828 0.719187 11.4544C0.873982 11.326 1.06215 11.2445 1.26176 11.2189L10.552 9.86582C10.7262 9.83948 10.8918 9.77274 11.0351 9.67054C11.1785 9.56835 11.2956 9.43396 11.377 9.27806L15.5213 0.867505C15.6063 0.684217 15.742 0.528735 15.9126 0.419983C16.0831 0.311231 16.2813 0.253418 16.4837 0.253418C16.686 0.253418 16.8842 0.311231 17.0548 0.419983C17.2253 0.528735 17.361 0.684217 17.4461 0.867505Z" fill="#FDB83E"/>
<path d="M61.0493 0.867505L65.1938 9.27806C65.2753 9.43396 65.3924 9.56835 65.5357 9.67054C65.6791 9.77274 65.8444 9.83948 66.0186 9.86582L75.3088 11.2189C75.5085 11.2445 75.6969 11.326 75.8517 11.4544C76.0065 11.5828 76.1215 11.7524 76.1832 11.9436C76.245 12.1348 76.251 12.3397 76.2005 12.5342C76.1501 12.7287 76.0452 12.9048 75.8982 13.042L69.1808 19.5902C69.054 19.7085 68.9588 19.8562 68.9039 20.0205C68.849 20.1849 68.8364 20.3607 68.8667 20.5312L70.4575 29.765C70.4922 29.9639 70.4703 30.1682 70.3942 30.3552C70.3182 30.5422 70.1911 30.7043 70.0274 30.8228C69.8637 30.9413 69.67 31.0118 69.4683 31.0258C69.2665 31.0397 69.0649 30.997 68.8864 30.9023L60.578 26.5496C60.4251 26.4637 60.2526 26.4189 60.0771 26.4189C59.9017 26.4189 59.7292 26.4637 59.5762 26.5496L51.2681 30.9023C51.0901 30.9916 50.8909 31.0299 50.6924 31.0133C50.4939 30.9967 50.3039 30.9256 50.1434 30.808C49.9828 30.6903 49.8578 30.5306 49.7825 30.3466C49.7072 30.1625 49.6845 29.9613 49.7166 29.765L51.2877 20.5312C51.3263 20.3624 51.3193 20.1863 51.2676 20.021C51.2158 19.8557 51.1211 19.7071 50.9931 19.5902L44.2563 13.042C44.1164 12.9004 44.0185 12.7227 43.9734 12.5289C43.9283 12.3352 43.9377 12.1328 44.0007 11.9441C44.0637 11.7553 44.1778 11.5877 44.3304 11.4597C44.4829 11.3317 44.6679 11.2485 44.865 11.2189L54.1555 9.86582C54.3267 9.8381 54.4888 9.77036 54.6288 9.66815C54.7687 9.56593 54.8823 9.43252 54.9606 9.27806L59.1245 0.867505C59.2096 0.684217 59.3455 0.528735 59.5161 0.419983C59.6866 0.311231 59.8846 0.253418 60.0869 0.253418C60.2893 0.253418 60.4875 0.311231 60.658 0.419983C60.8286 0.528735 60.9643 0.684217 61.0493 0.867505Z" fill="#FDB83E"/>
<path d="M104.633 0.867505L108.797 9.27806C108.875 9.43252 108.989 9.56593 109.129 9.66815C109.269 9.77036 109.431 9.8381 109.602 9.86582L118.893 11.2189C119.09 11.2485 119.275 11.3317 119.427 11.4597C119.58 11.5877 119.694 11.7553 119.757 11.9441C119.82 12.1328 119.829 12.3352 119.784 12.5289C119.739 12.7227 119.641 12.9004 119.501 13.042L112.765 19.5902C112.637 19.7071 112.542 19.8557 112.49 20.021C112.438 20.1863 112.431 20.3624 112.47 20.5312L114.041 29.765C114.074 29.9613 114.051 30.1625 113.975 30.3466C113.9 30.5306 113.775 30.6903 113.614 30.808C113.454 30.9256 113.264 30.9967 113.065 31.0133C112.867 31.0299 112.668 30.9916 112.49 30.9023L104.182 26.5496C104.029 26.4637 103.856 26.4189 103.681 26.4189C103.505 26.4189 103.333 26.4637 103.18 26.5496L94.8716 30.9023C94.6931 30.997 94.4915 31.0397 94.2897 31.0258C94.088 31.0118 93.8941 30.9413 93.7304 30.8228C93.5666 30.7043 93.4396 30.5422 93.3635 30.3552C93.2875 30.1682 93.2655 29.9639 93.3002 29.765L94.8913 20.5312C94.9216 20.3607 94.9088 20.1849 94.8539 20.0205C94.799 19.8562 94.7038 19.7085 94.577 19.5902L87.8596 13.042C87.7126 12.9048 87.6077 12.7287 87.5572 12.5342C87.5068 12.3397 87.513 12.1348 87.5747 11.9436C87.6365 11.7524 87.7515 11.5828 87.9063 11.4544C88.0611 11.326 88.2493 11.2445 88.4489 11.2189L97.7391 9.86582C97.9133 9.83948 98.0787 9.77274 98.222 9.67054C98.3654 9.56835 98.4827 9.43396 98.5642 9.27806L102.708 0.867505C102.793 0.684217 102.929 0.528735 103.1 0.419983C103.27 0.311231 103.468 0.253418 103.671 0.253418C103.873 0.253418 104.071 0.311231 104.242 0.419983C104.412 0.528735 104.548 0.684217 104.633 0.867505Z" fill="#FDB83E"/>
<path d="M148.236 0.867505L152.381 9.27806C152.462 9.43396 152.579 9.56835 152.723 9.67054C152.866 9.77274 153.031 9.83948 153.206 9.86582L162.496 11.2189C162.695 11.2445 162.884 11.326 163.038 11.4544C163.193 11.5828 163.308 11.7524 163.37 11.9436C163.432 12.1348 163.438 12.3397 163.388 12.5342C163.337 12.7287 163.232 12.9048 163.085 13.042L156.368 19.5902C156.241 19.7085 156.146 19.8562 156.091 20.0205C156.036 20.1849 156.023 20.3607 156.054 20.5312L157.645 29.765C157.677 29.9613 157.654 30.1625 157.578 30.3466C157.503 30.5306 157.378 30.6903 157.218 30.808C157.057 30.9256 156.867 30.9967 156.669 31.0133C156.47 31.0299 156.271 30.9916 156.093 30.9023L147.765 26.5496C147.612 26.4637 147.44 26.4189 147.264 26.4189C147.089 26.4189 146.916 26.4637 146.763 26.5496L138.455 30.9023C138.277 30.9916 138.078 31.0299 137.879 31.0133C137.681 30.9967 137.491 30.9256 137.33 30.808C137.17 30.6903 137.045 30.5306 136.97 30.3466C136.894 30.1625 136.871 29.9613 136.904 29.765L138.494 20.5312C138.525 20.3607 138.512 20.1849 138.457 20.0205C138.402 19.8562 138.307 19.7085 138.18 19.5902L131.443 13.042C131.303 12.9004 131.205 12.7227 131.16 12.5289C131.115 12.3352 131.125 12.1328 131.188 11.9441C131.251 11.7553 131.365 11.5877 131.517 11.4597C131.67 11.3317 131.855 11.2485 132.052 11.2189L141.342 9.86582C141.513 9.8381 141.676 9.77036 141.816 9.66815C141.956 9.56593 142.069 9.43252 142.148 9.27806L146.312 0.867505C146.397 0.684217 146.533 0.528735 146.703 0.419983C146.874 0.311231 147.072 0.253418 147.274 0.253418C147.476 0.253418 147.675 0.311231 147.845 0.419983C148.016 0.528735 148.151 0.684217 148.236 0.867505Z" fill="#FDB83E"/>
<path d="M191.82 0.867505L195.984 9.27806C196.062 9.43252 196.176 9.56593 196.316 9.66815C196.456 9.77036 196.618 9.8381 196.79 9.86582L206.08 11.2189C206.277 11.2485 206.462 11.3317 206.614 11.4597C206.767 11.5877 206.881 11.7553 206.944 11.9441C207.007 12.1328 207.017 12.3352 206.971 12.5289C206.926 12.7227 206.828 12.9004 206.688 13.042L199.952 19.5902C199.828 19.7105 199.737 19.8591 199.685 20.0234C199.634 20.1876 199.624 20.3623 199.657 20.5312L201.228 29.765C201.261 29.9613 201.238 30.1625 201.162 30.3466C201.087 30.5306 200.962 30.6903 200.801 30.808C200.641 30.9256 200.451 30.9967 200.252 31.0133C200.054 31.0299 199.855 30.9916 199.677 30.9023L191.369 26.5496C191.216 26.4637 191.043 26.4189 190.868 26.4189C190.692 26.4189 190.52 26.4637 190.367 26.5496L182.059 30.9023C181.88 30.997 181.678 31.0397 181.477 31.0258C181.275 31.0118 181.081 30.9413 180.917 30.8228C180.754 30.7043 180.627 30.5422 180.551 30.3552C180.474 30.1682 180.453 29.9639 180.487 29.765L182.078 20.5312C182.109 20.3607 182.096 20.1849 182.041 20.0205C181.986 19.8562 181.891 19.7085 181.764 19.5902L175.047 13.042C174.9 12.9048 174.795 12.7287 174.744 12.5342C174.694 12.3397 174.7 12.1348 174.762 11.9436C174.824 11.7524 174.939 11.5828 175.093 11.4544C175.248 11.326 175.436 11.2445 175.636 11.2189L184.926 9.86582C185.1 9.83948 185.266 9.77274 185.409 9.67054C185.552 9.56835 185.67 9.43396 185.751 9.27806L189.895 0.867505C189.98 0.684217 190.116 0.528735 190.287 0.419983C190.457 0.311231 190.655 0.253418 190.858 0.253418C191.06 0.253418 191.258 0.311231 191.429 0.419983C191.599 0.528735 191.735 0.684217 191.82 0.867505Z" fill="#FDB83E"/>
</svg>
