<svg width="43" height="39" viewBox="0 0 43 39" fill="none" xmlns="http://www.w3.org/2000/svg">
<path d="M21.2339 38.68H1.00391C0.73869 38.68 0.484335 38.5746 0.296799 38.3871C0.109262 38.1996 0.00390625 37.9452 0.00390625 37.68V21.56C0.00390625 21.2948 0.109262 21.0404 0.296799 20.8529C0.484335 20.6654 0.73869 20.56 1.00391 20.56H21.2339C21.4991 20.56 21.7535 20.6654 21.941 20.8529C22.1285 21.0404 22.2339 21.2948 22.2339 21.56V37.68C22.2339 37.9452 22.1285 38.1996 21.941 38.3871C21.7535 38.5746 21.4991 38.68 21.2339 38.68ZM2.00391 36.68H20.2339V22.56H2.00391V36.68Z" fill="#FF5C00"/>
<path d="M14.194 28.72H8.04395C7.77873 28.72 7.52437 28.6146 7.33684 28.4271C7.1493 28.2396 7.04395 27.9852 7.04395 27.72V21.56C7.04395 21.2948 7.1493 21.0404 7.33684 20.8529C7.52437 20.6654 7.77873 20.56 8.04395 20.56H14.194C14.4592 20.56 14.7135 20.6654 14.9011 20.8529C15.0886 21.0404 15.194 21.2948 15.194 21.56V27.72C15.194 27.9852 15.0886 28.2396 14.9011 28.4271C14.7135 28.6146 14.4592 28.72 14.194 28.72ZM9.04395 26.72H13.194V22.56H9.04395V26.72Z" fill="#FF5C00"/>
<path d="M21.234 22.53H1.00398C0.826786 22.5297 0.652852 22.4823 0.499985 22.3927C0.347118 22.3031 0.220813 22.1745 0.133987 22.02C0.0462191 21.868 0 21.6955 0 21.52C0 21.3445 0.0462191 21.172 0.133987 21.02L2.65398 16.82C2.74372 16.6726 2.8701 16.5509 3.0208 16.4668C3.1715 16.3827 3.34139 16.339 3.51398 16.34H11.024C11.2892 16.34 11.5436 16.4453 11.7311 16.6329C11.9186 16.8204 12.024 17.0748 12.024 17.34C12.024 17.6052 11.9186 17.8596 11.7311 18.0471C11.5436 18.2346 11.2892 18.34 11.024 18.34H4.02399L2.70398 20.54H21.174C21.4392 20.54 21.6936 20.6454 21.8811 20.8329C22.0686 21.0204 22.174 21.2748 22.174 21.54C22.1719 21.7934 22.0737 22.0366 21.8992 22.2203C21.7247 22.4041 21.4869 22.5148 21.234 22.53Z" fill="#FF5C00"/>
<path d="M8.04398 22.56C7.95424 22.5698 7.86372 22.5698 7.77399 22.56C7.64721 22.5253 7.52851 22.4659 7.4247 22.3853C7.32089 22.3047 7.23399 22.2044 7.16898 22.0901C7.10396 21.9759 7.06211 21.85 7.04581 21.7195C7.02951 21.5891 7.03907 21.4567 7.07397 21.33L8.26398 17.09C8.29869 16.9632 8.35806 16.8445 8.43869 16.7407C8.51932 16.6369 8.61962 16.55 8.73386 16.485C8.84809 16.42 8.97403 16.3781 9.10446 16.3618C9.23489 16.3455 9.36726 16.3551 9.49399 16.39C9.74818 16.4623 9.96344 16.6322 10.0927 16.8627C10.222 17.0931 10.2548 17.3654 10.184 17.62L9.00398 21.86C8.93984 22.064 8.81199 22.2421 8.63921 22.368C8.46642 22.494 8.25781 22.5613 8.04398 22.56Z" fill="#FF5C00"/>
<path d="M24.2344 6.24C24.0073 6.24718 23.7845 6.17681 23.6027 6.04049C23.421 5.90417 23.2911 5.71002 23.2344 5.49L22.1444 1.24999C22.1113 1.12261 22.1037 0.98994 22.122 0.859612C22.1403 0.729285 22.1842 0.603859 22.2511 0.490517C22.318 0.377175 22.4066 0.278147 22.5118 0.19912C22.6171 0.120093 22.7369 0.0626212 22.8644 0.0299917C23.1202 -0.0337807 23.3909 0.00609261 23.6176 0.140938C23.8442 0.275784 24.0084 0.494687 24.0744 0.749993L25.1744 4.99C25.2381 5.24587 25.1983 5.51657 25.0634 5.74319C24.9286 5.9698 24.7097 6.13398 24.4544 6.19999C24.3835 6.22454 24.3093 6.23804 24.2344 6.24Z" fill="#FF5C00"/>
<path d="M31.3543 22.35H11.1143C10.849 22.35 10.5947 22.2446 10.4072 22.0571C10.2196 21.8696 10.1143 21.6152 10.1143 21.35V5.23999C10.1143 4.97477 10.2196 4.72042 10.4072 4.53288C10.5947 4.34535 10.849 4.23999 11.1143 4.23999H31.3543C31.6195 4.23999 31.8738 4.34535 32.0614 4.53288C32.2489 4.72042 32.3543 4.97477 32.3543 5.23999V21.35C32.3543 21.6152 32.2489 21.8696 32.0614 22.0571C31.8738 22.2446 31.6195 22.35 31.3543 22.35ZM12.1143 20.35H30.3543V6.23999H12.1143V20.35Z" fill="#FF5C00"/>
<path d="M24.3143 12.39H18.1543C17.8891 12.39 17.6347 12.2846 17.4472 12.0971C17.2597 11.9096 17.1543 11.6552 17.1543 11.39V5.23999C17.1543 4.97477 17.2597 4.72042 17.4472 4.53288C17.6347 4.34535 17.8891 4.23999 18.1543 4.23999H24.3143C24.5795 4.23999 24.8339 4.34535 25.0214 4.53288C25.2089 4.72042 25.3143 4.97477 25.3143 5.23999V11.39C25.3143 11.6552 25.2089 11.9096 25.0214 12.0971C24.8339 12.2846 24.5795 12.39 24.3143 12.39ZM19.1543 10.39H23.3143V6.23999H19.1543V10.39Z" fill="#FF5C00"/>
<path d="M31.3543 6.20001H11.1143C10.9371 6.19971 10.7632 6.15233 10.6103 6.06272C10.4575 5.9731 10.3312 5.84449 10.2443 5.69002C10.1566 5.538 10.1104 5.36556 10.1104 5.19002C10.1104 5.01448 10.1566 4.84204 10.2443 4.69002L12.7543 0.480013C12.8441 0.332594 12.9704 0.210915 13.1211 0.126802C13.2718 0.0426898 13.4418 -0.000988078 13.6143 1.69606e-05H28.8143C28.9869 -0.000988078 29.1568 0.0426898 29.3075 0.126802C29.4582 0.210915 29.5846 0.332594 29.6743 0.480013L32.1843 4.69002C32.2721 4.84204 32.3183 5.01448 32.3183 5.19002C32.3183 5.36556 32.2721 5.538 32.1843 5.69002C32.1009 5.83874 31.9809 5.96366 31.8356 6.05292C31.6904 6.14218 31.5247 6.19281 31.3543 6.20001ZM12.8843 4.20001H29.5843L28.2643 2.00002H14.2043L12.8843 4.20001Z" fill="#FF5C00"/>
<path d="M18.1538 6.23996C18.0644 6.25451 17.9733 6.25451 17.8838 6.23996C17.6296 6.16771 17.4144 5.99778 17.2851 5.7673C17.1558 5.53682 17.123 5.26453 17.1938 5.00994L18.3738 0.769954C18.4085 0.643178 18.4679 0.524477 18.5485 0.420665C18.6292 0.316853 18.7295 0.229957 18.8437 0.164943C18.9579 0.0999289 19.0839 0.0580748 19.2143 0.0417743C19.3447 0.0254737 19.4771 0.035058 19.6038 0.0699573C19.7317 0.104602 19.8514 0.164297 19.956 0.245601C20.0606 0.326905 20.148 0.42819 20.2132 0.54356C20.2783 0.658929 20.3198 0.786094 20.3354 0.917659C20.351 1.04922 20.3402 1.18256 20.3038 1.30995L19.1238 5.54995C19.0574 5.75373 18.9273 5.93077 18.7527 6.055C18.578 6.17923 18.3681 6.24407 18.1538 6.23996Z" fill="#FF5C00"/>
<path d="M41.574 38.68H21.334C21.0688 38.68 20.8144 38.5746 20.6269 38.3871C20.4393 38.1996 20.334 37.9452 20.334 37.68V21.56C20.334 21.2948 20.4393 21.0404 20.6269 20.8529C20.8144 20.6654 21.0688 20.56 21.334 20.56H41.574C41.8392 20.56 42.0936 20.6654 42.2811 20.8529C42.4686 21.0404 42.574 21.2948 42.574 21.56V37.68C42.574 37.9452 42.4686 38.1996 42.2811 38.3871C42.0936 38.5746 41.8392 38.68 41.574 38.68ZM22.334 36.68H40.574V22.56H22.334V36.68Z" fill="#FF5C00"/>
<path d="M34.534 28.72H28.374C28.1088 28.72 27.8545 28.6146 27.6669 28.4271C27.4794 28.2396 27.374 27.9852 27.374 27.72V21.56C27.374 21.2948 27.4794 21.0404 27.6669 20.8529C27.8545 20.6654 28.1088 20.56 28.374 20.56H34.534C34.7992 20.56 35.0536 20.6654 35.2411 20.8529C35.4287 21.0404 35.534 21.2948 35.534 21.56V27.72C35.534 27.9852 35.4287 28.2396 35.2411 28.4271C35.0536 28.6146 34.7992 28.72 34.534 28.72ZM29.374 26.72H33.534V22.56H29.374V26.72Z" fill="#FF5C00"/>
<path d="M41.574 22.53H21.334C21.0688 22.53 20.8144 22.4246 20.6269 22.2371C20.4393 22.0495 20.334 21.7952 20.334 21.53C20.334 21.2648 20.4393 21.0104 20.6269 20.8229C20.8144 20.6353 21.0688 20.53 21.334 20.53H39.804L38.484 18.33H31.484C31.2188 18.33 30.9644 18.2246 30.7769 18.0371C30.5893 17.8495 30.484 17.5952 30.484 17.33C30.484 17.0648 30.5893 16.8104 30.7769 16.6229C30.9644 16.4353 31.2188 16.33 31.484 16.33H39.084C39.2566 16.329 39.4265 16.3726 39.5772 16.4568C39.7279 16.5409 39.8542 16.6626 39.944 16.81L42.454 21.01C42.5417 21.162 42.588 21.3344 42.588 21.51C42.588 21.6855 42.5417 21.8579 42.454 22.01C42.3676 22.1678 42.2403 22.2994 42.0854 22.3909C41.9306 22.4824 41.7539 22.5305 41.574 22.53Z" fill="#FF5C00"/>
<path d="M34.5342 22.56C34.3136 22.5701 34.0959 22.5069 33.915 22.3803C33.7341 22.2536 33.6002 22.0707 33.5342 21.86L32.2242 17.62C32.1857 17.4939 32.1726 17.3615 32.1855 17.2303C32.1983 17.0992 32.237 16.9718 32.2993 16.8557C32.3615 16.7395 32.4462 16.6368 32.5483 16.5534C32.6504 16.4701 32.7679 16.4077 32.8942 16.37C33.1475 16.2919 33.4214 16.3175 33.6558 16.4413C33.8902 16.565 34.0659 16.7768 34.1442 17.03L35.4442 21.27C35.5223 21.5233 35.4967 21.7972 35.3729 22.0316C35.2492 22.266 35.0374 22.4416 34.7842 22.52C34.7029 22.5438 34.6189 22.5573 34.5342 22.56Z" fill="#FF5C00"/>
</svg>
