<svg width="61" height="61" viewBox="0 0 61 61" fill="none" xmlns="http://www.w3.org/2000/svg">
<path d="M30.6588 55.8748C25.6716 55.8748 20.7963 54.3959 16.6496 51.6251C12.5029 48.8543 9.27087 44.9162 7.36233 40.3085C5.4538 35.7009 4.95444 30.6308 5.9274 25.7394C6.90036 20.848 9.30195 16.355 12.8285 12.8285C16.355 9.30195 20.848 6.90036 25.7394 5.9274C30.6308 4.95444 35.7009 5.4538 40.3085 7.36233C44.9162 9.27087 48.8543 12.5029 51.6251 16.6496C54.3959 20.7963 55.8748 25.6716 55.8748 30.6588C55.8683 37.3445 53.2096 43.7545 48.4821 48.4821C43.7545 53.2096 37.3445 55.8683 30.6588 55.8748V55.8748ZM30.6588 7.88038C26.1537 7.88038 21.7497 9.21631 18.0038 11.7192C14.2579 14.2222 11.3383 17.7797 9.61429 21.9419C7.89024 26.1041 7.43915 30.6841 8.31806 35.1027C9.19697 39.5213 11.3664 43.58 14.552 46.7656C17.7377 49.9512 21.7964 52.1207 26.215 52.9996C30.6335 53.8785 35.2135 53.4274 39.3758 51.7034C43.538 49.9793 47.0955 47.0597 49.5984 43.3138C52.1013 39.5679 53.4373 35.164 53.4373 30.6588C53.4308 24.6196 51.0289 18.8295 46.7585 14.5592C42.4881 10.2888 36.6981 7.88683 30.6588 7.88038V7.88038Z" fill="#FF5C00"/>
<path d="M27.0026 38.6781C25.8524 38.685 24.7437 38.2485 23.907 37.4593C23.2833 36.8798 22.829 36.1415 22.5928 35.3235C22.3567 34.5055 22.3475 33.6387 22.5663 32.8159C22.7993 32.1105 23.1874 31.4663 23.702 30.9307C24.2166 30.395 24.8447 29.9814 25.5401 29.7203C25.6952 29.6529 25.8626 29.6185 26.0317 29.6193C26.2008 29.6201 26.3678 29.6561 26.5223 29.725C26.6767 29.7939 26.8151 29.8942 26.9287 30.0194C27.0423 30.1447 27.1285 30.2922 27.182 30.4526C27.2355 30.6131 27.255 30.7828 27.2393 30.9512C27.2236 31.1196 27.173 31.2828 27.0908 31.4306C27.0086 31.5783 26.8965 31.7074 26.7617 31.8095C26.627 31.9116 26.4724 31.9845 26.3079 32.0237C25.6945 32.2969 25.2039 32.7874 24.9307 33.4009C24.8186 33.7995 24.8172 34.2212 24.9267 34.6206C25.0362 35.02 25.2525 35.382 25.5523 35.6678C25.8471 35.94 26.2116 36.1252 26.6054 36.2026C26.9991 36.2801 27.4066 36.2468 27.7826 36.1065C29.3913 35.5824 29.5498 32.6818 29.5498 32.6453V12.3774C29.5498 12.0542 29.6782 11.7442 29.9067 11.5157C30.1353 11.2871 30.4453 11.1587 30.7685 11.1587C31.0918 11.1587 31.4018 11.2871 31.6303 11.5157C31.8589 11.7442 31.9873 12.0542 31.9873 12.3774V32.694C31.9873 32.9256 31.7923 37.3496 28.5382 38.4221C28.0434 38.5891 27.5249 38.6756 27.0026 38.6781Z" fill="#FF5C00"/>
<path d="M48.2818 32.0969H35.5337C35.2105 32.0969 34.9005 31.9685 34.6719 31.74C34.4433 31.5114 34.3149 31.2014 34.3149 30.8782C34.3149 30.5549 34.4433 30.2449 34.6719 30.0164C34.9005 29.7878 35.2105 29.6594 35.5337 29.6594H48.2818C48.605 29.6594 48.915 29.7878 49.1436 30.0164C49.3722 30.2449 49.5006 30.5549 49.5006 30.8782C49.5006 31.2014 49.3722 31.5114 49.1436 31.74C48.915 31.9685 48.605 32.0969 48.2818 32.0969Z" fill="#FF5C00"/>
<path d="M14.9734 31.8774H12.3774C12.0542 31.8774 11.7442 31.749 11.5157 31.5205C11.2871 31.2919 11.1587 30.9819 11.1587 30.6587C11.1587 30.3355 11.2871 30.0255 11.5157 29.7969C11.7442 29.5683 12.0542 29.4399 12.3774 29.4399H14.9734C15.2966 29.4399 15.6066 29.5683 15.8352 29.7969C16.0637 30.0255 16.1921 30.3355 16.1921 30.6587C16.1921 30.9819 16.0637 31.2919 15.8352 31.5205C15.6066 31.749 15.2966 31.8774 14.9734 31.8774Z" fill="#FF5C00"/>
<path d="M30.6587 50.1587C30.3355 50.1587 30.0255 50.0303 29.7969 49.8017C29.5683 49.5732 29.4399 49.2632 29.4399 48.9399V46.344C29.4399 46.0208 29.5683 45.7108 29.7969 45.4822C30.0255 45.2536 30.3355 45.1252 30.6587 45.1252C30.9819 45.1252 31.2919 45.2536 31.5205 45.4822C31.749 45.7108 31.8774 46.0208 31.8774 46.344V48.9399C31.8774 49.2632 31.749 49.5732 31.5205 49.8017C31.2919 50.0303 30.9819 50.1587 30.6587 50.1587Z" fill="#FF5C00"/>
<path d="M43.3581 45.2837C43.1977 45.2846 43.0387 45.2539 42.8903 45.1932C42.7418 45.1326 42.6067 45.0432 42.4928 44.9302L40.6647 43.1021C40.5505 42.9888 40.4598 42.854 40.3979 42.7055C40.3361 42.557 40.3042 42.3977 40.3042 42.2368C40.3042 42.0759 40.3361 41.9166 40.3979 41.7681C40.4598 41.6196 40.5505 41.4848 40.6647 41.3715C40.8931 41.1445 41.2019 41.0171 41.5239 41.0171C41.8459 41.0171 42.1548 41.1445 42.3831 41.3715L44.2235 43.2118C44.4505 43.4402 44.5779 43.7491 44.5779 44.071C44.5779 44.393 44.4505 44.7019 44.2235 44.9302C44.1096 45.0432 43.9745 45.1326 43.826 45.1932C43.6775 45.2539 43.5185 45.2846 43.3581 45.2837Z" fill="#FF5C00"/>
<path d="M19.568 21.4449C19.4076 21.4459 19.2486 21.4151 19.1001 21.3545C18.9516 21.2938 18.8165 21.2044 18.7027 21.0915L16.8745 19.2634C16.7609 19.1497 16.6708 19.0148 16.6093 18.8664C16.5478 18.7179 16.5161 18.5588 16.5161 18.3981C16.5161 18.2373 16.5478 18.0782 16.6093 17.9297C16.6708 17.7813 16.7609 17.6464 16.8745 17.5327C16.9882 17.4191 17.1231 17.329 17.2715 17.2675C17.42 17.206 17.5791 17.1743 17.7398 17.1743C17.9006 17.1743 18.0597 17.206 18.2082 17.2675C18.3566 17.329 18.4915 17.4191 18.6052 17.5327L20.4333 19.3731C20.6603 19.6014 20.7877 19.9103 20.7877 20.2323C20.7877 20.5542 20.6603 20.8631 20.4333 21.0915C20.3194 21.2044 20.1844 21.2938 20.0359 21.3545C19.8874 21.4151 19.7284 21.4459 19.568 21.4449V21.4449Z" fill="#FF5C00"/>
<path d="M30.6588 60.7863C24.7001 60.7863 18.8753 59.0193 13.9208 55.7089C8.96638 52.3984 5.10486 47.6931 2.82458 42.1881C0.544304 36.683 -0.0523214 30.6253 1.11015 24.7812C2.27263 18.937 5.142 13.5688 9.3554 9.3554C13.5688 5.142 18.937 2.27263 24.7812 1.11015C30.6253 -0.0523214 36.683 0.544304 42.1881 2.82458C47.6931 5.10486 52.3984 8.96638 55.7089 13.9208C59.0193 18.8753 60.7863 24.7001 60.7863 30.6588C60.7766 38.6461 57.5993 46.3035 51.9514 51.9514C46.3035 57.5993 38.6461 60.7766 30.6588 60.7863V60.7863ZM30.6588 2.96876C25.1822 2.96876 19.8286 4.59275 15.275 7.63537C10.7214 10.678 7.17233 15.0026 5.07654 20.0623C2.98075 25.1219 2.43239 30.6895 3.50082 36.0608C4.56924 41.4322 7.20646 46.366 11.079 50.2386C14.9515 54.1111 19.8854 56.7483 25.2567 57.8167C30.6281 58.8851 36.1956 58.3368 41.2553 56.241C46.315 54.1452 50.6395 50.5961 53.6822 46.0425C56.7248 41.4889 58.3488 36.1353 58.3488 30.6588C58.3423 23.3169 55.4229 16.2776 50.2314 11.0861C45.0399 5.89462 38.0006 2.97522 30.6588 2.96876Z" fill="#FF5C00"/>
<path d="M41.189 20.9088C41.0286 20.9097 40.8696 20.879 40.7211 20.8183C40.5726 20.7577 40.4375 20.6683 40.3236 20.5554C40.0967 20.327 39.9692 20.0181 39.9692 19.6961C39.9692 19.3742 40.0967 19.0653 40.3236 18.8369L42.1518 16.9966C42.3813 16.7671 42.6925 16.6382 43.0171 16.6382C43.3416 16.6382 43.6529 16.7671 43.8824 16.9966C44.1119 17.2261 44.2408 17.5374 44.2408 17.8619C44.2408 18.1865 44.1119 18.4977 43.8824 18.7272L42.0543 20.5554C41.9404 20.6683 41.8053 20.7577 41.6568 20.8183C41.5084 20.879 41.3494 20.9097 41.189 20.9088Z" fill="#FF5C00"/>
<path d="M17.3987 44.6866C17.2383 44.6875 17.0793 44.6568 16.9308 44.5961C16.7823 44.5355 16.6472 44.4461 16.5334 44.3331C16.4191 44.2198 16.3285 44.0851 16.2666 43.9365C16.2047 43.788 16.1729 43.6287 16.1729 43.4678C16.1729 43.3069 16.2047 43.1476 16.2666 42.9991C16.3285 42.8506 16.4191 42.7158 16.5334 42.6025L18.3737 40.7744C18.4829 40.6468 18.6174 40.5432 18.7686 40.47C18.9198 40.3969 19.0845 40.3558 19.2523 40.3493C19.4202 40.3428 19.5875 40.3711 19.7439 40.4324C19.9003 40.4936 20.0424 40.5866 20.1611 40.7054C20.2799 40.8241 20.3729 40.9662 20.4341 41.1226C20.4954 41.279 20.5237 41.4463 20.5172 41.6142C20.5107 41.782 20.4696 41.9467 20.3965 42.0979C20.3233 42.2491 20.2197 42.3836 20.0921 42.4928L18.264 44.3331C18.1501 44.4461 18.015 44.5355 17.8666 44.5961C17.7181 44.6568 17.5591 44.6875 17.3987 44.6866Z" fill="#FF5C00"/>
</svg>
