<svg width="59" height="57" viewBox="0 0 59 57" fill="none" xmlns="http://www.w3.org/2000/svg">
<path d="M27.684 56.8907C26.7946 56.8907 25.9251 56.6237 25.1856 56.1234C24.4461 55.6232 23.8697 54.9122 23.5293 54.0803C23.189 53.2485 23.0999 52.3331 23.2734 51.45C23.4469 50.5669 23.8752 49.7557 24.5041 49.119C25.1331 48.4824 25.9343 48.0488 26.8067 47.8731C27.679 47.6975 28.5832 47.7876 29.4049 48.1322C30.2266 48.4768 30.9289 49.0603 31.423 49.8089C31.9172 50.5576 32.1809 51.4378 32.1809 52.3382C32.1744 53.5435 31.6986 54.6977 30.8566 55.55C30.0147 56.4023 28.8746 56.8841 27.684 56.8907V56.8907ZM27.684 50.187C27.2637 50.187 26.8529 50.3131 26.5034 50.5495C26.154 50.7859 25.8816 51.1219 25.7208 51.5149C25.56 51.908 25.5179 52.3405 25.5999 52.7578C25.6819 53.1751 25.8842 53.5584 26.1814 53.8593C26.4786 54.1601 26.8572 54.365 27.2694 54.448C27.6816 54.531 28.1089 54.4884 28.4971 54.3256C28.8854 54.1628 29.2173 53.887 29.4508 53.5333C29.6843 53.1795 29.8089 52.7636 29.8089 52.3382C29.8155 52.0515 29.7654 51.7664 29.6616 51.4996C29.5577 51.2328 29.4022 50.9897 29.2043 50.7846C29.0063 50.5795 28.7698 50.4166 28.5087 50.3053C28.2476 50.1941 27.9672 50.1369 27.684 50.1369V50.187Z" fill="#FF5C00"/>
<path d="M32.4524 53.9389H31.7852C31.4576 53.9389 31.1433 53.8071 30.9117 53.5726C30.68 53.338 30.5498 53.0199 30.5498 52.6882C30.5498 52.3565 30.68 52.0384 30.9117 51.8038C31.1433 51.5693 31.4576 51.4375 31.7852 51.4375C37.74 51.4375 41.6686 50.462 43.67 45.3341C43.8139 45.0838 44.0424 44.8945 44.3133 44.8012C44.5843 44.708 44.8794 44.717 45.1442 44.8267C45.4091 44.9364 45.6258 45.1393 45.7545 45.3981C45.8832 45.6568 45.9151 45.9539 45.8444 46.2346C43.1512 52.9133 37.6659 53.7388 32.5512 53.7388L32.4524 53.9389Z" fill="#FF5C00"/>
<path d="M49.8226 23.7974C49.5142 23.7913 49.2197 23.6662 48.9993 23.4477C48.7789 23.2292 48.6491 22.9338 48.6366 22.6218C48.6366 10.9654 40.7546 2.61075 29.8828 2.61075C19.0111 2.61075 11.1291 10.9403 11.1291 22.6218C11.1291 22.9535 10.9989 23.2716 10.7672 23.5061C10.5355 23.7407 10.2213 23.8725 9.89363 23.8725C9.56597 23.8725 9.25174 23.7407 9.02005 23.5061C8.78836 23.2716 8.6582 22.9535 8.6582 22.6218V21.9214C8.6582 21.9214 8.6582 21.7963 8.6582 21.7463C9.17708 9.33945 18.171 0.109375 29.8828 0.109375C41.5947 0.109375 50.5886 9.33945 50.9839 21.7463C50.9839 21.7463 50.9839 21.7463 50.9839 21.9214V22.6218C50.9717 22.9296 50.8455 23.2215 50.6303 23.4394C50.4151 23.6573 50.1267 23.7851 49.8226 23.7974V23.7974Z" fill="#FF5C00"/>
<path d="M7.0521 46.1597C6.84314 46.152 6.63935 46.0919 6.4591 45.9846C6.19286 45.8231 5.99977 45.5624 5.92124 45.2585C5.84271 44.9545 5.885 44.6315 6.03905 44.3587C6.23672 44.0085 6.43439 43.7083 6.60735 43.3832C5.78067 42.9808 5.02185 42.449 4.35887 41.8073C3.15878 40.5749 2.22837 39.1005 1.62813 37.4801C1.0279 35.8597 0.77128 34.1295 0.874968 32.4021C0.965015 30.3953 1.58276 28.4493 2.66436 26.765C3.74596 25.0808 5.25219 23.7195 7.02739 22.8218C8.88866 21.9643 10.9126 21.5289 12.9574 21.5461H13.2292C13.666 21.5641 14.0944 21.6727 14.4879 21.8654C14.8814 22.0581 15.2315 22.3306 15.5166 22.6661C15.8016 23.0016 16.0154 23.3928 16.1448 23.8155C16.2741 24.2382 16.3162 24.6833 16.2684 25.1231V35.3788C16.2621 35.6952 16.1351 35.9969 15.914 36.2207C15.693 36.4445 15.3949 36.573 15.0824 36.5794V36.5794C14.7698 36.573 14.4718 36.4445 14.2507 36.2207C14.0297 35.9969 13.9027 35.6952 13.8964 35.3788V25.1231C13.8964 24.5228 13.5999 24.0225 13.2539 24.0225H12.9574C11.2544 24.0056 9.56816 24.3641 8.01573 25.0731C6.63284 25.7833 5.46064 26.852 4.61859 28.1702C3.77655 29.4885 3.29474 31.0091 3.22228 32.5772C3.13792 33.96 3.33813 35.3454 3.81024 36.6458C4.28235 37.9461 5.01607 39.1331 5.96493 40.1314C6.54749 40.6867 7.21502 41.1428 7.94161 41.4821C11.4749 36.6295 14.0446 36.4794 15.3542 36.9796C16.0599 37.2532 16.6488 37.7681 17.0189 38.4351C17.3889 39.1022 17.5168 39.8792 17.3803 40.6317C17.202 41.7491 16.6316 42.764 15.7738 43.4899C14.916 44.2159 13.8283 44.6043 12.7104 44.5838C11.4275 44.7088 10.1331 44.6158 8.88053 44.3087C8.60874 44.7089 8.33694 45.1591 8.06515 45.6344C7.95176 45.7993 7.80006 45.9335 7.6234 46.0251C7.44675 46.1167 7.25056 46.1629 7.0521 46.1597ZM10.3878 42.1075C11.0947 42.1703 11.8057 42.1703 12.5127 42.1075C14.2176 41.9574 14.9835 41.0319 14.9835 40.2064C14.9835 39.381 14.9835 39.2309 14.5141 39.0808C14.0446 38.9307 12.488 39.431 10.3878 42.1075Z" fill="#FF5C00"/>
<path d="M52.7628 46.1596C52.5575 46.1547 52.3568 46.0971 52.1796 45.992C52.0023 45.887 51.8544 45.7381 51.7497 45.5593C51.4779 45.084 51.2061 44.6338 50.9343 44.2335C49.6818 44.5407 48.3873 44.6337 47.1045 44.5087C45.9866 44.5292 44.8989 44.1408 44.041 43.4148C43.1832 42.6888 42.6128 41.674 42.4346 40.5565C42.2981 39.8041 42.426 39.027 42.796 38.36C43.1661 37.693 43.755 37.1781 44.4607 36.9045C45.7702 36.4293 48.3399 36.5543 51.8733 41.407C52.5972 41.0629 53.264 40.6073 53.8499 40.0563C54.8115 39.0463 55.5526 37.843 56.0251 36.5243C56.4976 35.2057 56.691 33.8012 56.5926 32.402C56.5201 30.8339 56.0383 29.3133 55.1963 27.995C54.3542 26.6768 53.182 25.6081 51.7991 24.8979C50.2467 24.1889 48.5604 23.8304 46.8574 23.8473H46.5362C46.1903 23.8473 45.8938 24.3476 45.8938 24.9479V35.2036C45.8875 35.52 45.7605 35.8217 45.5394 36.0455C45.3184 36.2693 45.0203 36.3978 44.7078 36.4042V36.4042C44.3952 36.3978 44.0972 36.2693 43.8761 36.0455C43.6551 35.8217 43.5281 35.52 43.5218 35.2036V25.123C43.4916 24.6938 43.5459 24.2628 43.6815 23.855C43.8171 23.4471 44.0313 23.0706 44.3117 22.7472C44.592 22.4238 44.9331 22.1599 45.3149 21.9709C45.6968 21.7819 46.1119 21.6715 46.5362 21.6461H46.8574C48.9021 21.6313 50.9255 22.0666 52.7875 22.9218C54.5657 23.8183 56.0755 25.1786 57.1613 26.8626C58.2472 28.5466 58.8696 30.4934 58.9646 32.5021C59.0543 34.2302 58.7888 35.9584 58.1849 37.5773C57.581 39.1962 56.6517 40.6706 55.456 41.9073C54.7822 42.547 54.0156 43.0785 53.1828 43.4831C53.3805 43.8083 53.5781 44.1085 53.7758 44.4587C53.9299 44.7314 53.9722 45.0545 53.8936 45.3584C53.8151 45.6624 53.622 45.9231 53.3558 46.0846C53.1669 46.1574 52.9635 46.1831 52.7628 46.1596ZM45.3502 39.1057H45.0784C44.6831 39.2558 44.5595 39.7811 44.6089 40.2314C44.6584 40.6816 45.449 41.9823 47.0798 42.1324C47.7868 42.1952 48.4978 42.1952 49.2047 42.1324C47.5246 39.7811 46.1409 39.1057 45.3502 39.1057Z" fill="#FF5C00"/>
</svg>
