<svg width="58" height="51" viewBox="0 0 58 51" fill="none" xmlns="http://www.w3.org/2000/svg">
<path d="M29.1507 50.3456H28.9101C28.6401 50.3474 28.3774 50.2573 28.1641 50.0896C20.1995 47.2865 6.60413 33.9412 3.36772 25.5684C0.444128 18.2559 0.0470967 12.2718 2.1646 7.82337C3.01213 6.1866 4.18868 4.74778 5.61848 3.59958C7.04827 2.45138 8.69961 1.61926 10.4662 1.15681C11.9283 0.780891 13.4335 0.604643 14.9418 0.632745C19.5697 0.582423 24.0554 2.25172 27.5505 5.32493L27.8032 5.54431L29.0063 6.62899L29.4876 6.19024L30.414 5.33712C33.3015 2.66806 37.2838 1.10806 42.2768 0.681497C44.0393 0.527675 45.8148 0.688555 47.5224 1.15681C49.2939 1.61479 50.9506 2.44496 52.3849 3.59345C53.8192 4.74194 54.9991 6.18309 55.848 7.82337C57.9896 12.2718 57.5926 18.2437 54.6449 25.5806C51.4205 33.9412 37.8011 47.2865 29.8605 50.0896C29.6571 50.2497 29.4082 50.3394 29.1507 50.3456V50.3456ZM14.5327 3.05806C13.3885 3.07648 12.2501 3.22778 11.1399 3.509C9.69901 3.87792 8.35008 4.54764 7.17951 5.47527C6.00895 6.4029 5.04255 7.56798 4.34225 8.89587C2.5135 12.6862 2.93462 17.9999 5.60555 24.6665C8.61337 32.4543 21.7274 45.3852 29.0304 47.8227C36.3333 45.3852 49.4835 32.4665 52.4432 24.6665C55.1262 17.9756 55.5473 12.6618 53.7185 8.82275C53.0175 7.4931 52.0494 6.32685 50.8766 5.39908C49.7038 4.4713 48.3522 3.80255 46.9088 3.43586C45.4747 3.04677 43.9851 2.91073 42.5054 3.03368C38.0538 3.4115 34.5407 4.76431 32.0623 7.06774L31.1238 7.93306L30.811 8.21337C32.7362 9.95671 34.3982 11.977 35.7438 14.2096C37.9094 18.2924 38.1501 22.2656 36.5379 25.3977C35.8567 26.6624 34.8729 27.7335 33.6768 28.5128C32.4807 29.2922 31.1106 29.7548 29.6921 29.8584C29.2437 29.8948 28.7931 29.8948 28.3446 29.8584C26.9244 29.7615 25.5516 29.3015 24.3544 28.5215C23.1572 27.7414 22.1748 26.6667 21.4988 25.3977C19.8385 22.2656 20.1152 18.2924 22.2808 14.2096C23.6341 11.9757 25.3089 9.9588 27.2498 8.22555L26.2391 7.29931L25.9865 7.07993C22.9786 4.3865 19.7543 3.20431 14.8696 2.98493L14.5327 3.05806ZM29.0304 9.94399C27.2286 11.5361 25.6679 13.3882 24.3984 15.4406C22.6298 18.7799 22.353 21.9243 23.6163 24.3131C24.1093 25.2233 24.8208 25.9929 25.6851 26.551C26.5493 27.1091 27.5385 27.4376 28.5612 27.5062C28.8655 27.5306 29.1712 27.5306 29.4755 27.5062C30.4979 27.4365 31.4866 27.1076 32.3507 26.5496C33.2148 25.9916 33.9265 25.2225 34.4204 24.3131C35.6837 21.8756 35.3949 18.7799 33.6263 15.4406C32.3674 13.391 30.819 11.5391 29.0304 9.94399Z" fill="#FF5C00"/>
</svg>
