<svg width="22" height="23" viewBox="0 0 22 23" fill="none" xmlns="http://www.w3.org/2000/svg">
<mask id="mask0_17_3879" style="mask-type:alpha" maskUnits="userSpaceOnUse" x="0" y="0" width="22" height="23">
<rect x="0.33252" y="0.948952" width="21.1571" height="21.1571" fill="#D9D9D9"/>
</mask>
<g mask="url(#mask0_17_3879)">
<path d="M3.85857 17.6983V11.1969L2.97702 11.8801C2.77133 12.027 2.55094 12.0858 2.31586 12.0564C2.08078 12.027 1.88978 11.9095 1.74286 11.7038C1.59594 11.4981 1.53717 11.2777 1.56655 11.0426C1.59594 10.8075 1.70613 10.6165 1.89713 10.4696L3.85857 8.971V7.11975C3.85857 6.86998 3.94305 6.66062 4.11201 6.49165C4.28097 6.32269 4.49034 6.23821 4.74011 6.23821C4.98988 6.23821 5.19925 6.32269 5.36821 6.49165C5.53717 6.66062 5.62165 6.86998 5.62165 7.11975V7.62664L9.83103 4.409C10.1543 4.15923 10.5142 4.03435 10.9109 4.03435C11.3076 4.03435 11.6676 4.15923 11.9908 4.409L19.9247 10.4696C20.1157 10.6165 20.2259 10.8075 20.2553 11.0426C20.2847 11.2777 20.2259 11.4981 20.079 11.7038C19.9321 11.8948 19.7411 12.005 19.506 12.0344C19.2709 12.0637 19.0579 12.005 18.8669 11.8581L17.9633 11.1969V17.6983C17.9633 18.1831 17.7906 18.5982 17.4454 18.9435C17.1001 19.2887 16.685 19.4614 16.2002 19.4614H5.62165C5.13681 19.4614 4.72175 19.2887 4.37647 18.9435C4.0312 18.5982 3.85857 18.1831 3.85857 17.6983ZM5.62165 17.6983H10.0294V15.0537C10.0294 14.8039 10.1139 14.5945 10.2828 14.4256C10.4518 14.2566 10.6612 14.1721 10.9109 14.1721C11.1607 14.1721 11.3701 14.2566 11.539 14.4256C11.708 14.5945 11.7925 14.8039 11.7925 15.0537V17.6983H16.2002V9.85254L10.9109 5.81948L5.62165 9.85254V17.6983ZM5.00457 5.35666C4.66665 5.35666 4.40586 5.21709 4.2222 4.93793C4.03855 4.65878 4.02753 4.37227 4.18915 4.07843C4.43892 3.65235 4.76582 3.31809 5.16986 3.07567C5.5739 2.83324 6.01835 2.71203 6.5032 2.71203C6.66482 2.71203 6.81909 2.67163 6.96601 2.59082C7.11293 2.51001 7.22313 2.39614 7.29659 2.24922C7.37005 2.11699 7.46923 2.01414 7.59411 1.94068C7.719 1.86722 7.86225 1.83049 8.02386 1.83049C8.36179 1.83049 8.61891 1.97007 8.79522 2.24922C8.97152 2.52838 8.97887 2.81488 8.81725 3.10873C8.56748 3.53481 8.24058 3.86906 7.83654 4.11148C7.43249 4.35391 6.98805 4.47512 6.5032 4.47512C6.34158 4.47512 6.18731 4.51185 6.04039 4.58531C5.89346 4.65878 5.78327 4.77631 5.70981 4.93793C5.63635 5.07016 5.54085 5.17301 5.42331 5.24647C5.30577 5.31993 5.16619 5.35666 5.00457 5.35666Z" fill="#212529"/>
</g>
</svg>
