<svg width="78" height="51" viewBox="0 0 78 51" fill="none" xmlns="http://www.w3.org/2000/svg">
<path d="M56.1812 50.3013C55.5494 50.2987 54.9275 50.1447 54.3676 49.852C53.8077 49.5594 53.3263 49.1367 52.9636 48.6194C52.5968 48.1073 52.3578 47.5148 52.2666 46.8914C52.1755 46.2681 52.2348 45.632 52.4396 45.0363L54.7918 38.26C55.1127 37.3157 55.6136 36.4424 56.2665 35.6885L60.2517 30.8135C60.4221 30.5981 60.5332 30.342 60.5738 30.0704C60.6145 29.7989 60.5832 29.5214 60.4833 29.2656L57.5705 21.8069C57.5705 21.8069 57.5705 21.8069 57.4486 21.8069C57.4202 21.7929 57.3889 21.7856 57.3572 21.7856C57.3255 21.7856 57.2943 21.7929 57.2659 21.8069L52.8905 26.1944C52.5829 26.505 52.2164 26.7512 51.8126 26.9186C51.4087 27.086 50.9755 27.1713 50.5383 27.1694C50.101 27.1726 49.6673 27.088 49.2633 26.9205C48.8592 26.7531 48.493 26.5061 48.1862 26.1944C47.5881 25.6137 47.2242 24.8336 47.1636 24.0023C47.1029 23.171 47.3497 22.3463 47.8571 21.685L54.6699 12.8978C55.1538 12.2669 55.7939 11.7732 56.5271 11.4654C57.2602 11.1577 58.061 11.0465 58.8502 11.1428C59.6402 11.2331 60.3931 11.5279 61.0343 11.9981C61.6755 12.4683 62.1829 13.0977 62.5065 13.8241L68.844 27.4375C69.5302 28.9288 69.7496 30.5926 69.4734 32.2108C69.1972 33.829 68.4382 35.3259 67.2962 36.505L62.8355 40.5025L59.8617 47.815C59.5698 48.5518 59.0623 49.1832 58.4056 49.6268C57.7489 50.0704 56.9736 50.3055 56.1812 50.3013ZM57.3999 19.2841C57.554 19.272 57.7089 19.272 57.863 19.2841C58.2804 19.3617 58.6734 19.5368 59.0102 19.7952C59.3469 20.0536 59.6178 20.388 59.8008 20.771L62.7502 28.3028C63.0034 28.9595 63.0792 29.6713 62.97 30.3666C62.8609 31.0618 62.5708 31.7162 62.1287 32.2638L58.1311 37.2363C57.6654 37.7665 57.3092 38.3837 57.083 39.0522L54.7308 45.8284C54.6524 46.0558 54.6303 46.2987 54.6664 46.5365C54.7025 46.7742 54.7957 46.9996 54.938 47.1935C55.0752 47.3893 55.2576 47.5492 55.4698 47.6595C55.682 47.7698 55.9176 47.8274 56.1568 47.8272C56.4572 47.8278 56.751 47.7389 57.0007 47.5717C57.2503 47.4046 57.4445 47.1668 57.5583 46.8888L60.6417 39.2959C60.7116 39.1234 60.82 38.9692 60.9586 38.845L65.5533 34.7013C66.3346 33.8816 66.8513 32.8458 67.036 31.7286C67.2208 30.6114 67.0651 29.4645 66.5893 28.4369L60.2396 14.7991C60.0813 14.466 59.8401 14.179 59.5393 13.9657C59.2384 13.7523 58.8879 13.6196 58.5211 13.5803C58.1494 13.532 57.7715 13.582 57.425 13.7253C57.0786 13.8686 56.7758 14.1001 56.5468 14.3969L49.7339 23.1963C49.6027 23.3771 49.5393 23.5983 49.5549 23.8212C49.5705 24.044 49.6641 24.2543 49.8192 24.415C49.9033 24.5013 50.0038 24.5698 50.1147 24.6166C50.2256 24.6634 50.3448 24.6875 50.4652 24.6875C50.5856 24.6875 50.7048 24.6634 50.8157 24.6166C50.9267 24.5698 51.0271 24.5013 51.1111 24.415L55.523 20.0031C56.0326 19.5228 56.712 19.2642 57.4121 19.2841H57.3999Z" fill="#FF5C00"/>
<path d="M73.3654 49.8383C72.6727 49.8484 71.9901 49.6715 71.3895 49.3262C70.7889 48.9808 70.2926 48.4799 69.9529 47.8761L65.8822 40.5636C65.8045 40.4236 65.7553 40.2696 65.7371 40.1105C65.719 39.9514 65.7323 39.7903 65.7765 39.6364C65.8206 39.4825 65.8946 39.3387 65.9943 39.2134C66.0941 39.0881 66.2175 38.9837 66.3576 38.9061C66.6389 38.7482 66.9713 38.7083 67.282 38.7951C67.5927 38.882 67.8563 39.0884 68.0151 39.3693L72.0735 46.6818C72.2102 46.8879 72.3959 47.057 72.6139 47.174C72.8318 47.291 73.0754 47.3522 73.3228 47.3522C73.5701 47.3522 73.8136 47.291 74.0316 47.174C74.2496 47.057 74.4352 46.8879 74.5719 46.6818C74.6971 46.465 74.763 46.2191 74.763 45.9688C74.763 45.7185 74.6971 45.4726 74.5719 45.2558L69.5507 35.8836C69.4005 35.5976 69.37 35.2635 69.466 34.955C69.562 34.6465 69.7766 34.3887 70.0626 34.2383C70.3472 34.0872 70.68 34.0549 70.9884 34.1485C71.2967 34.2422 71.5554 34.4541 71.7079 34.738L76.7169 44.1102C77.0346 44.7016 77.1926 45.3655 77.1755 46.0366C77.1584 46.7076 76.9667 47.3626 76.6194 47.9371C76.2845 48.5054 75.8096 48.9786 75.24 49.3114C74.6704 49.6442 74.025 49.8256 73.3654 49.8383Z" fill="#FF5C00"/>
<path d="M52.7076 11.7888C51.2271 11.7888 49.8074 11.2007 48.7606 10.1539C47.7138 9.10705 47.1257 7.68728 47.1257 6.20688C47.1257 4.72647 47.7138 3.3067 48.7606 2.25989C49.8074 1.21309 51.2271 0.625 52.7076 0.625C54.188 0.625 55.6078 1.21309 56.6546 2.25989C57.7014 3.3067 58.2895 4.72647 58.2895 6.20688C58.2895 7.68728 57.7014 9.10705 56.6546 10.1539C55.6078 11.2007 54.188 11.7888 52.7076 11.7888ZM52.7076 3.0625C51.8746 3.06571 51.0767 3.39802 50.4877 3.98701C49.8987 4.576 49.5664 5.37392 49.5632 6.20688C49.5664 7.03983 49.8987 7.83775 50.4877 8.42674C51.0767 9.01573 51.8746 9.34804 52.7076 9.35125C53.5405 9.34804 54.3385 9.01573 54.9275 8.42674C55.5165 7.83775 55.8487 7.03983 55.852 6.20688C55.8487 5.37392 55.5165 4.576 54.9275 3.98701C54.3385 3.39802 53.5405 3.06571 52.7076 3.0625Z" fill="#FF5C00"/>
<path d="M21.0812 50.3011C20.2985 50.3044 19.5326 50.0742 18.8813 49.64C18.23 49.2058 17.723 48.5874 17.425 47.8636L14.4512 40.5511L10.0637 36.6024C8.89987 35.427 8.12234 33.9245 7.83488 32.2956C7.54743 30.6667 7.76373 28.9889 8.45489 27.4861L14.7924 13.8727C15.1159 13.1463 15.6234 12.5169 16.2646 12.0467C16.9058 11.5765 17.6586 11.2817 18.4487 11.1914C19.238 11.0938 20.0391 11.2045 20.7725 11.5123C21.5058 11.8202 22.1459 12.3146 22.629 12.9464L29.4418 21.7336C29.9477 22.3854 30.1984 23.1995 30.1468 24.023C30.0952 24.8465 29.7449 25.6229 29.1615 26.2064C28.8457 26.5324 28.4665 26.7903 28.0473 26.9642C27.6281 27.1382 27.1778 27.2246 26.724 27.218C26.2866 27.2213 25.853 27.1366 25.449 26.9691C25.0449 26.8017 24.6786 26.5547 24.3718 26.243L19.9843 21.8068C19.9561 21.7918 19.9247 21.784 19.8929 21.784C19.861 21.784 19.8296 21.7918 19.8015 21.8068C19.7687 21.8077 19.7371 21.8187 19.7109 21.8384C19.6847 21.858 19.6653 21.8853 19.6552 21.9164L16.7668 29.3021C16.6697 29.5591 16.6412 29.8369 16.6839 30.1082C16.7266 30.3796 16.8392 30.6351 17.0105 30.8499L21.0081 35.8102C21.6532 36.5585 22.1495 37.423 22.4705 38.3574L24.8106 45.1336C25.0171 45.7284 25.0784 46.364 24.9893 46.9873C24.9003 47.6106 24.6635 48.2036 24.2986 48.7168C23.9241 49.2146 23.4377 49.6174 22.8788 49.8926C22.3199 50.1679 21.7042 50.3078 21.0812 50.3011ZM18.9727 13.5436H18.7168C18.3494 13.5806 17.9978 13.7124 17.6966 13.926C17.3954 14.1397 17.1548 14.4278 16.9983 14.7624L10.6608 28.4002C10.1811 29.4406 10.0279 30.602 10.2216 31.7312C10.4152 32.8604 10.9466 33.9044 11.7455 34.7255L16.328 38.8693C16.4643 38.9955 16.5723 39.1492 16.6449 39.3202L19.7283 46.913C19.8408 47.192 20.0346 47.4307 20.2846 47.598C20.5346 47.7654 20.8291 47.8537 21.1299 47.8514C21.3689 47.8506 21.6041 47.7926 21.8161 47.6824C22.0281 47.5721 22.2107 47.4128 22.3487 47.2177C22.4899 47.0233 22.5815 46.7973 22.6155 46.5594C22.6495 46.3215 22.6248 46.0789 22.5436 45.8527L20.2037 39.0764C19.977 38.4207 19.6298 37.8131 19.18 37.2849L15.1459 32.288C14.7058 31.7392 14.4178 31.0844 14.3108 30.3891C14.2039 29.6939 14.2817 28.9827 14.5365 28.3271L17.4493 20.8683C17.6324 20.4842 17.9031 20.1484 18.2397 19.888C18.5763 19.6277 18.9693 19.45 19.3871 19.3693C19.8044 19.2989 20.2325 19.3296 20.6355 19.459C21.0384 19.5884 21.4044 19.8125 21.7027 20.1127L26.1146 24.5246C26.1978 24.6075 26.2967 24.6728 26.4056 24.7168C26.5144 24.7607 26.631 24.7824 26.7483 24.7805C26.864 24.7829 26.9789 24.7614 27.0858 24.7173C27.1928 24.6733 27.2895 24.6077 27.3699 24.5246C27.5527 24.3664 27.6674 24.1438 27.6902 23.9031C27.7129 23.6624 27.6418 23.4223 27.4918 23.2327L20.679 14.4333C20.4835 14.1624 20.2275 13.9409 19.9313 13.7864C19.635 13.6319 19.3068 13.5488 18.9727 13.5436Z" fill="#FF5C00"/>
<path d="M3.88446 49.8381C3.21476 49.8405 2.55602 49.6687 1.97272 49.3397C1.38943 49.0106 0.901646 48.5356 0.557294 47.9612C0.209983 47.3868 0.0183507 46.7318 0.00125379 46.0607C-0.0158431 45.3897 0.142165 44.7257 0.459773 44.1344L5.48102 34.7622C5.63349 34.4783 5.89222 34.2664 6.20056 34.1727C6.50889 34.0791 6.84178 34.1114 7.12637 34.2625C7.41026 34.415 7.62217 34.6737 7.71581 34.982C7.80946 35.2903 7.77717 35.6232 7.62603 35.9078L2.61698 45.28C2.49183 45.4968 2.42596 45.7427 2.42596 45.993C2.42596 46.2433 2.49183 46.4892 2.61698 46.7059C2.75404 46.902 2.93638 47.0622 3.14855 47.1728C3.36073 47.2833 3.59647 47.3411 3.83573 47.3411C4.07499 47.3411 4.31074 47.2833 4.52292 47.1728C4.73509 47.0622 4.91743 46.902 5.05448 46.7059L9.11294 39.3934C9.19154 39.2528 9.29724 39.1291 9.42395 39.0295C9.55066 38.93 9.69588 38.8565 9.85116 38.8135C10.0064 38.7704 10.1687 38.7585 10.3286 38.7786C10.4885 38.7986 10.6428 38.8502 10.7826 38.9303C11.0635 39.089 11.2699 39.3526 11.3567 39.6633C11.4436 39.974 11.4036 40.3065 11.2458 40.5878L7.1873 47.9003C6.85173 48.4817 6.37093 48.9659 5.79195 49.3056C5.21298 49.6453 4.55566 49.8288 3.88446 49.8381Z" fill="#FF5C00"/>
<path d="M24.5543 11.7888C23.0728 11.7888 21.6518 11.2011 20.603 10.1546C19.5543 9.10814 18.9634 7.6884 18.9602 6.20688C18.9634 4.72535 19.5543 3.30561 20.603 2.25915C21.6518 1.2127 23.0728 0.624996 24.5543 0.625C26.0337 0.62822 27.4516 1.21734 28.4978 2.26345C29.5439 3.30956 30.133 4.72746 30.1362 6.20688C30.133 7.68629 29.5439 9.10419 28.4978 10.1503C27.4516 11.1964 26.0337 11.7855 24.5543 11.7888ZM24.5543 3.0625C23.7192 3.06249 22.9182 3.39339 22.3266 3.98272C21.7349 4.57206 21.4009 5.37182 21.3977 6.20688C21.4009 7.04194 21.7349 7.84169 22.3266 8.43103C22.9182 9.02037 23.7192 9.35126 24.5543 9.35125C25.3873 9.34804 26.1852 9.01573 26.7741 8.42674C27.3631 7.83775 27.6955 7.03983 27.6987 6.20688C27.6955 5.37392 27.3631 4.576 26.7741 3.98701C26.1852 3.39802 25.3873 3.06571 24.5543 3.0625Z" fill="#FF5C00"/>
<path d="M30.0024 27.5594C29.0639 27.5594 26.0902 27.4741 24.5302 26.3407C24.4012 26.2455 24.2923 26.1259 24.2096 25.9886C24.1269 25.8513 24.0722 25.6991 24.0484 25.5406C24.0246 25.3821 24.0323 25.2205 24.0711 25.065C24.1099 24.9095 24.1789 24.7632 24.2743 24.6344C24.3694 24.5054 24.489 24.3965 24.6263 24.3138C24.7636 24.2311 24.9159 24.1763 25.0743 24.1526C25.2328 24.1288 25.3945 24.1365 25.55 24.1753C25.7055 24.214 25.8517 24.2831 25.9805 24.3785C27.2934 24.976 28.7336 25.2398 30.173 25.1463C32.4787 25.3166 34.7738 24.6977 36.6812 23.3913C35.8831 22.7043 35.1856 21.9083 34.6093 21.0269C34.0299 20.222 33.6749 19.2775 33.5807 18.2903C33.4864 17.303 33.6564 16.3084 34.073 15.4085C34.5089 14.6411 35.137 14.0004 35.8957 13.5495C36.6543 13.0986 37.5172 12.853 38.3996 12.8369H38.7531C39.6453 12.8449 40.5198 13.0865 41.2897 13.5377C42.0595 13.9889 42.6976 14.6339 43.1405 15.4085C43.5572 16.3084 43.7271 17.303 43.6329 18.2903C43.5387 19.2775 43.1837 20.222 42.6043 21.0269C42.0231 21.9046 41.3215 22.6964 40.5202 23.3791C42.4536 24.6395 44.7353 25.2579 47.0406 25.1463C48.1523 25.1123 49.2602 24.9983 50.3555 24.805C50.6674 24.7232 50.999 24.7684 51.2777 24.9306C51.5564 25.0928 51.7595 25.3588 51.8424 25.6703C51.8848 25.8256 51.8959 25.9877 51.8752 26.1473C51.8546 26.3069 51.8025 26.4608 51.7221 26.6002C51.6416 26.7395 51.5344 26.8616 51.4065 26.9593C51.2787 27.057 51.1327 27.1284 50.9771 27.1694C49.6966 27.3986 48.4015 27.537 47.1015 27.5838C44.2324 27.7358 41.3943 26.9298 39.0334 25.2925L38.8993 25.1829L38.619 24.9635L38.2168 25.2804C35.8856 26.9518 33.048 27.7656 30.1852 27.5838L30.0024 27.5594ZM38.7043 15.2379H38.4727C38.0287 15.2385 37.592 15.3503 37.2024 15.5632C36.8128 15.7761 36.4828 16.0833 36.2424 16.4566C36.0346 16.9892 35.968 17.5665 36.0491 18.1324C36.1303 18.6983 36.3564 19.2336 36.7055 19.6863C37.2381 20.4777 37.878 21.1914 38.6068 21.8069C39.3405 21.217 39.9886 20.5279 40.5324 19.7594C40.8815 19.3067 41.1077 18.7714 41.1889 18.2055C41.27 17.6396 41.2034 17.0623 40.9955 16.5297C40.7568 16.1357 40.4205 15.8098 40.0192 15.5835C39.6179 15.3572 39.165 15.2382 38.7043 15.2379Z" fill="#FF5C00"/>
</svg>
