<svg width="31" height="43" viewBox="0 0 31 43" fill="none" xmlns="http://www.w3.org/2000/svg">
<path d="M15.2655 42.36C15.1042 42.36 14.9452 42.3239 14.8009 42.2544C14.6566 42.185 14.5311 42.0842 14.4344 41.96L6.23695 31.45C6.15508 31.3449 6.09554 31.2254 6.06167 31.0982C6.02781 30.971 6.02031 30.8386 6.03961 30.7086C6.0589 30.5786 6.10453 30.4535 6.17404 30.3405C6.24356 30.2275 6.33554 30.1288 6.44469 30.05C6.55384 29.9712 6.67803 29.9139 6.8102 29.8813C6.94237 29.8487 7.07996 29.8415 7.21503 29.86C7.3501 29.8786 7.48001 29.9226 7.59741 29.9895C7.71481 30.0564 7.8174 30.1449 7.89926 30.25L15.2343 39.65L22.268 29.92C22.3615 29.8 28.5018 21.92 28.1278 14.43C27.733 7.34 22.2057 1.99 15.2655 1.99C11.8558 1.99529 8.58742 3.3013 6.17645 5.62186C3.76549 7.94241 2.40861 11.0882 2.40312 14.37C2.40312 21.88 8.92783 24.54 14.5174 24.54C16.214 24.5373 17.8403 23.8875 19.0399 22.7329C20.2396 21.5782 20.9147 20.0129 20.9175 18.38C20.9147 16.7471 20.2396 15.1818 19.0399 14.0271C17.8403 12.8725 16.214 12.2226 14.5174 12.22C13.7297 12.2065 12.9476 12.3496 12.22 12.6404C11.4924 12.9312 10.835 13.3634 10.2889 13.91C9.78708 14.424 9.40064 15.032 9.15395 15.6962C8.90726 16.3603 8.8056 17.0663 8.85515 17.77C8.86359 17.9014 8.84492 18.0331 8.80036 18.1575C8.7558 18.2819 8.68614 18.3967 8.59541 18.4952C8.50467 18.5937 8.39466 18.6739 8.27162 18.7314C8.14859 18.7888 8.01498 18.8224 7.87846 18.83C7.60448 18.8465 7.33489 18.7579 7.12854 18.5836C6.92218 18.4094 6.79591 18.1636 6.77723 17.9C6.71184 16.9228 6.85508 15.9431 7.19816 15.0213C7.54124 14.0994 8.0768 13.255 8.77195 12.54C9.51152 11.7927 10.4038 11.2008 11.3926 10.8016C12.3813 10.4023 13.4453 10.2043 14.5174 10.22C16.7651 10.2226 18.9199 11.0832 20.5092 12.6129C22.0985 14.1427 22.9926 16.2166 22.9954 18.38C22.9926 20.5434 22.0985 22.6173 20.5092 24.1471C18.9199 25.6768 16.7651 26.5373 14.5174 26.54C6.02912 26.54 0.325195 21.65 0.325195 14.37C0.333439 10.5595 1.91049 6.90757 4.71085 4.2141C7.5112 1.52064 11.3065 0.00528405 15.2655 0C23.3278 0 29.7486 6.16 30.2057 14.33C30.6629 22.5 24.2213 30.77 23.972 31.11L16.1381 41.94C16.0447 42.0697 15.9208 42.1763 15.7763 42.2511C15.6318 42.3258 15.471 42.3666 15.3071 42.37L15.2655 42.36Z" fill="#FF5C00"/>
</svg>
