<svg width="22" height="23" viewBox="0 0 22 23" fill="none" xmlns="http://www.w3.org/2000/svg">
<mask id="mask0_17_3886" style="mask-type:alpha" maskUnits="userSpaceOnUse" x="0" y="0" width="22" height="23">
<rect x="0.33252" y="0.948944" width="21.1571" height="21.1571" fill="#D9D9D9"/>
</mask>
<g mask="url(#mask0_17_3886)">
<path d="M1.21399 16.1115C1.21399 15.612 1.34255 15.1529 1.59966 14.7341C1.85678 14.3154 2.19838 13.9958 2.62446 13.7754C3.53539 13.32 4.46101 12.9784 5.40133 12.7506C6.34164 12.5229 7.29665 12.409 8.26635 12.409C9.23604 12.409 10.1911 12.5229 11.1314 12.7506C12.0717 12.9784 12.9973 13.32 13.9082 13.7754C14.3343 13.9958 14.6759 14.3154 14.933 14.7341C15.1901 15.1529 15.3187 15.612 15.3187 16.1115V16.8168C15.3187 17.3016 15.1461 17.7167 14.8008 18.0619C14.4555 18.4072 14.0405 18.5799 13.5556 18.5799H2.97708C2.49223 18.5799 2.07717 18.4072 1.7319 18.0619C1.38663 17.7167 1.21399 17.3016 1.21399 16.8168V16.1115ZM18.8449 18.5799H16.5969C16.7586 18.3154 16.8798 18.0326 16.9606 17.7314C17.0414 17.4302 17.0818 17.1253 17.0818 16.8168V15.9352C17.0818 15.2888 16.9018 14.668 16.5418 14.073C16.1819 13.4779 15.6713 12.9674 15.0102 12.5413C15.7595 12.6294 16.4647 12.78 17.1259 12.9931C17.787 13.2061 18.4041 13.4669 18.9771 13.7754C19.506 14.0693 19.9101 14.3962 20.1892 14.7562C20.4684 15.1161 20.608 15.5091 20.608 15.9352V16.8168C20.608 17.3016 20.4353 17.7167 20.0901 18.0619C19.7448 18.4072 19.3297 18.5799 18.8449 18.5799ZM8.26635 11.5275C7.29665 11.5275 6.46653 11.1822 5.77598 10.4917C5.08544 9.80114 4.74017 8.97102 4.74017 8.00132C4.74017 7.03162 5.08544 6.2015 5.77598 5.51096C6.46653 4.82042 7.29665 4.47514 8.26635 4.47514C9.23604 4.47514 10.0662 4.82042 10.7567 5.51096C11.4473 6.2015 11.7925 7.03162 11.7925 8.00132C11.7925 8.97102 11.4473 9.80114 10.7567 10.4917C10.0662 11.1822 9.23604 11.5275 8.26635 11.5275ZM17.0818 8.00132C17.0818 8.97102 16.7365 9.80114 16.046 10.4917C15.3554 11.1822 14.5253 11.5275 13.5556 11.5275C13.394 11.5275 13.1883 11.5091 12.9385 11.4724C12.6888 11.4357 12.4831 11.3953 12.3215 11.3512C12.7181 10.881 13.023 10.3595 13.2361 9.78645C13.4491 9.21345 13.5556 8.6184 13.5556 8.00132C13.5556 7.38424 13.4491 6.7892 13.2361 6.21619C13.023 5.64319 12.7181 5.12161 12.3215 4.65145C12.5271 4.57799 12.7328 4.53024 12.9385 4.5082C13.1442 4.48616 13.3499 4.47514 13.5556 4.47514C14.5253 4.47514 15.3554 4.82042 16.046 5.51096C16.7365 6.2015 17.0818 7.03162 17.0818 8.00132ZM2.97708 16.8168H13.5556V16.1115C13.5556 15.9499 13.5152 15.803 13.4344 15.6708C13.3536 15.5385 13.2471 15.4357 13.1148 15.3622C12.3214 14.9655 11.5207 14.668 10.7126 14.4697C9.90455 14.2713 9.08912 14.1721 8.26635 14.1721C7.44357 14.1721 6.62814 14.2713 5.82006 14.4697C5.01198 14.668 4.21124 14.9655 3.41785 15.3622C3.28562 15.4357 3.1791 15.5385 3.09829 15.6708C3.01748 15.803 2.97708 15.9499 2.97708 16.1115V16.8168ZM8.26635 9.76441C8.75119 9.76441 9.16626 9.59177 9.51153 9.2465C9.8568 8.90123 10.0294 8.48617 10.0294 8.00132C10.0294 7.51647 9.8568 7.10141 9.51153 6.75614C9.16626 6.41087 8.75119 6.23823 8.26635 6.23823C7.7815 6.23823 7.36644 6.41087 7.02116 6.75614C6.67589 7.10141 6.50326 7.51647 6.50326 8.00132C6.50326 8.48617 6.67589 8.90123 7.02116 9.2465C7.36644 9.59177 7.7815 9.76441 8.26635 9.76441Z" fill="#212529"/>
</g>
</svg>
