<svg width="56" height="43" viewBox="0 0 56 43" fill="none" xmlns="http://www.w3.org/2000/svg">
<path d="M25.831 4.99933L16.6194 20.0557C18.7421 20.9894 20.5445 22.5228 21.8045 24.4668C23.1006 26.4042 23.7848 28.6854 23.7686 31.015C23.7969 32.5862 23.4993 34.1462 22.8942 35.597C22.2891 37.0478 21.3899 38.3576 20.253 39.4447C19.1607 40.5482 17.8568 41.4207 16.4192 42.0102C14.9817 42.5996 13.4399 42.894 11.8858 42.8755C10.3076 42.9221 8.73674 42.6414 7.27285 42.0509C5.80895 41.4603 4.48372 40.5727 3.38106 39.4447C2.27833 38.339 1.41076 37.0226 0.830247 35.574C0.249735 34.1254 -0.0317013 32.5748 0.00283372 31.015C0.115486 28.3771 0.951069 25.8206 2.41866 23.6239L17.1105 0.09812L25.831 4.99933ZM55.0768 4.99933L45.8846 20.0557C48.0124 20.9051 49.8193 22.3999 51.0502 24.3294C52.3562 26.3134 53.04 28.6412 53.0143 31.015C53.0143 34.1347 51.7728 37.1262 49.5627 39.3322C47.3527 41.5382 44.3551 42.7779 41.2296 42.7779C39.6731 42.8149 38.1259 42.5289 36.6857 41.9384C35.2455 41.3478 33.9435 40.4655 32.8625 39.3471C31.7597 38.2413 30.8922 36.9245 30.3117 35.4759C29.7312 34.0273 29.4497 32.4767 29.4843 30.9169C29.5969 28.279 30.4325 25.7225 31.9001 23.5258L46.4739 0L55.0768 4.99933Z" fill="#FDB83E"/>
</svg>
