<svg width="45" height="47" viewBox="0 0 45 47" fill="none" xmlns="http://www.w3.org/2000/svg">
<path d="M22.1306 46.4815C21.9916 46.479 21.8543 46.4518 21.7254 46.4015C18.1692 44.9237 14.9149 42.8479 12.1151 40.2715C4.44752 33.2715 0.0527344 23.0315 0.0527344 12.1315C0.0527344 11.6715 0.0527344 11.2115 0.0527344 10.7515C0.0527344 9.46147 0.208639 8.15147 0.374873 6.85147C0.408756 6.59496 0.54449 6.36105 0.753703 6.19884C0.962916 6.03662 1.2293 5.95872 1.4969 5.98147C2.31768 6.05147 3.15928 6.09147 4.00084 6.09147C10.3446 6.06395 16.4962 3.99406 21.4761 0.211472C21.6587 0.0744275 21.8835 0 22.115 0C22.3466 0 22.5715 0.0744275 22.7541 0.211472C27.7428 3.98889 33.9027 6.04851 40.2501 6.06147C41.0917 6.06147 41.9333 6.06147 42.7437 5.95147C42.8802 5.9391 43.0179 5.95288 43.1489 5.992C43.2799 6.03113 43.4015 6.09483 43.5068 6.17943C43.6121 6.26403 43.6989 6.36785 43.7623 6.48491C43.8257 6.60197 43.8643 6.72995 43.8761 6.86147C43.8992 7.1237 43.8141 7.38414 43.639 7.58631C43.464 7.78849 43.2132 7.91609 42.9411 7.94147C42.0579 8.02147 41.154 8.06147 40.2501 8.06147C33.7155 8.0378 27.3624 5.99015 22.1306 2.22147C16.9035 5.9913 10.5533 8.0392 4.02163 8.06147C3.4606 8.06147 2.89945 8.06147 2.3488 8.06147C2.2449 8.99147 2.18261 9.92147 2.14106 10.8315C2.14106 11.2715 2.14106 11.7115 2.14106 12.1515C2.07196 17.1129 3.04918 22.0362 5.01354 26.6238C6.97791 31.2113 9.88859 35.3677 13.5696 38.8415C16.086 41.1496 18.9914 43.0297 22.1618 44.4015C25.3347 43.0382 28.2409 41.1609 30.754 38.8515C34.3179 35.6459 37.1685 31.7773 39.133 27.48C41.0975 23.1827 42.135 18.5462 42.1826 13.8515C34.4008 13.1615 27.7826 16.6615 23.9592 19.3215C24.6623 19.8684 25.3 20.4888 25.8605 21.1715C26.6852 22.1097 27.1219 23.3074 27.0874 24.5358C27.0529 25.7643 26.5496 26.9375 25.6735 27.8315C25.2275 28.2938 24.6874 28.6629 24.0869 28.9158C23.4863 29.1687 22.8381 29.3 22.1826 29.3015C21.5486 29.307 20.9204 29.1843 20.3388 28.9414C19.7571 28.6986 19.2349 28.3409 18.806 27.8915C17.9633 26.8723 17.5176 25.6016 17.5461 24.2994C17.5745 22.9972 18.0754 21.7456 18.9618 20.7615C19.0553 20.6715 19.5748 20.1515 20.4683 19.4115C17.2745 17.7051 13.5446 17.1754 9.9748 17.9215C9.70481 17.9714 9.42532 17.9163 9.19748 17.7682C8.96963 17.6201 8.81203 17.3912 8.75923 17.1315C8.70738 16.8716 8.76468 16.6026 8.91852 16.3833C9.07237 16.164 9.31025 16.0123 9.58005 15.9615C13.8848 15.0653 18.3829 15.8186 22.1202 18.0615C26.2761 15.0615 33.9644 10.7515 43.3151 11.9615C43.5647 11.9954 43.793 12.1156 43.9574 12.2996C44.1218 12.4836 44.211 12.7188 44.2086 12.9615C44.2912 18.0814 43.2618 23.1615 41.1865 27.8764C39.1111 32.5912 36.0355 36.8369 32.1566 40.3415C29.3547 42.9128 26.1008 44.985 22.5463 46.4615C22.4102 46.4926 22.2693 46.4993 22.1306 46.4815ZM22.2138 20.4815C21.0813 21.3815 20.4476 22.0015 20.4164 22.0315C19.8822 22.6445 19.5774 23.4125 19.5511 24.2123C19.5247 25.012 19.7782 25.797 20.2709 26.4415C20.525 26.6797 20.8257 26.8671 21.1555 26.9927C21.4854 27.1183 21.8379 27.1796 22.1926 27.1731C22.5473 27.1665 22.8971 27.0923 23.2217 26.9548C23.5464 26.8172 23.8394 26.6189 24.0839 26.3715C24.6124 25.8363 24.9174 25.1324 24.9404 24.3944C24.9634 23.6564 24.7028 22.9361 24.2086 22.3715C23.624 21.6792 22.9542 21.058 22.2138 20.5215V20.4815Z" fill="#FF5C00"/>
</svg>
