<svg width="33" height="32" viewBox="0 0 33 32" fill="none" xmlns="http://www.w3.org/2000/svg">
<path d="M17.4456 0.867505L21.6095 9.27806C21.6878 9.43252 21.8016 9.56593 21.9416 9.66815C22.0815 9.77036 22.2437 9.8381 22.4149 9.86582L31.7051 11.2189C31.9022 11.2485 32.0872 11.3317 32.2398 11.4597C32.3923 11.5877 32.5064 11.7553 32.5694 11.9441C32.6325 12.1328 32.6421 12.3352 32.597 12.5289C32.5519 12.7227 32.454 12.9004 32.3141 13.042L25.5771 19.5902C25.4502 19.7085 25.355 19.8562 25.3001 20.0205C25.2452 20.1849 25.2324 20.3607 25.2627 20.5312L26.8538 29.765C26.8859 29.9613 26.8629 30.1625 26.7876 30.3466C26.7123 30.5306 26.5876 30.6903 26.427 30.808C26.2664 30.9256 26.0762 30.9967 25.8777 31.0133C25.6792 31.0299 25.48 30.9916 25.302 30.9023L16.9939 26.5496C16.841 26.4637 16.6685 26.4189 16.493 26.4189C16.3176 26.4189 16.1451 26.4637 15.9922 26.5496L7.66432 30.9023C7.48637 30.9916 7.28716 31.0299 7.08865 31.0133C6.89014 30.9967 6.69994 30.9256 6.53936 30.808C6.37879 30.6903 6.25409 30.5306 6.17876 30.3466C6.10344 30.1625 6.08047 29.9613 6.11259 29.765L7.70364 20.5312C7.734 20.3607 7.72112 20.1849 7.66623 20.0205C7.61135 19.8562 7.51614 19.7085 7.38931 19.5902L0.671945 13.042C0.524951 12.9048 0.420305 12.7287 0.369847 12.5342C0.319389 12.3397 0.325324 12.1348 0.38711 11.9436C0.448896 11.7524 0.563903 11.5828 0.718698 11.4544C0.873494 11.326 1.06166 11.2445 1.26128 11.2189L10.5515 9.86582C10.7257 9.83948 10.8913 9.77274 11.0346 9.67054C11.178 9.56835 11.2951 9.43396 11.3765 9.27806L15.5208 0.867505C15.6058 0.684217 15.7415 0.528735 15.9121 0.419983C16.0826 0.311231 16.2808 0.253418 16.4832 0.253418C16.6855 0.253418 16.8838 0.311231 17.0543 0.419983C17.2248 0.528735 17.3605 0.684217 17.4456 0.867505Z" fill="#FDB83E"/>
</svg>
