<svg width="66" height="52" viewBox="0 0 66 52" fill="none" xmlns="http://www.w3.org/2000/svg">
<path d="M64.4838 38.2992H14.89C14.5792 38.2992 14.2813 38.1707 14.0615 37.9422C13.8417 37.7136 13.7182 37.4036 13.7182 37.0804V11.377C13.7124 11.3325 13.7124 11.2874 13.7182 11.2429C13.7182 11.2429 14.1167 7.12353 12.019 4.7104C11.4251 4.07602 10.7055 3.58385 9.91015 3.26814C9.11479 2.95242 8.26275 2.82075 7.41348 2.88228C6.63726 2.79923 5.85425 2.94489 5.15384 3.30264C4.45344 3.66039 3.86387 4.21578 3.45254 4.9054C3.1011 5.54579 2.91624 6.2704 2.91624 7.00775C2.91624 7.74509 3.1011 8.4697 3.45254 9.11009C3.81615 9.73876 4.34098 10.2496 4.96816 10.5855C5.59534 10.9213 6.30009 11.0688 7.00335 11.0113H10.519C10.8298 11.0113 11.1279 11.1397 11.3477 11.3683C11.5674 11.5969 11.6909 11.9069 11.6909 12.2301C11.6909 12.5533 11.5674 12.8633 11.3477 13.0919C11.1279 13.3204 10.8298 13.4488 10.519 13.4488H7.00335C5.90312 13.4877 4.81324 13.2159 3.84965 12.6622C2.88605 12.1086 2.08468 11.2938 1.53064 10.3045C0.978002 9.29196 0.6875 8.14763 0.6875 6.98337C0.6875 5.81911 0.978002 4.67478 1.53064 3.66228C2.14891 2.60466 3.03401 1.74336 4.08969 1.17185C5.14536 0.600338 6.33126 0.340455 7.51891 0.420402C8.70019 0.358058 9.88054 0.562126 10.9789 1.01862C12.0772 1.47511 13.0676 2.17322 13.8823 3.06509C16.519 6.12415 16.2261 10.7432 16.1558 11.4135V35.8617H64.5776C64.8884 35.8617 65.1864 35.9901 65.4062 36.2186C65.626 36.4472 65.7495 36.7572 65.7495 37.0804C65.75 37.249 65.7168 37.4159 65.6522 37.5705C65.5875 37.7251 65.4927 37.864 65.3737 37.9786C65.2548 38.0931 65.1143 38.1808 64.9611 38.2359C64.8079 38.2911 64.6454 38.3126 64.4838 38.2992V38.2992Z" fill="#FF5C00"/>
<path d="M25.6128 51.5956C24.8603 51.594 24.1154 51.4383 23.4207 51.1373C22.726 50.8363 22.0952 50.396 21.5642 49.8415C21.0331 49.2869 20.6123 48.629 20.3258 47.9054C20.0392 47.1817 19.8925 46.4064 19.8941 45.6237C19.8972 44.0441 20.5019 42.5301 21.5759 41.4132C22.6499 40.2962 24.1057 39.6673 25.6245 39.6641C27.1414 39.6705 28.5941 40.3008 29.6656 41.4175C30.7371 42.5341 31.3402 44.0462 31.3433 45.6237C31.3448 46.4074 31.1977 47.1837 30.9104 47.9082C30.6231 48.6326 30.2013 49.2911 29.669 49.8458C29.1367 50.4005 28.5045 50.8405 27.8085 51.1408C27.1125 51.4411 26.3663 51.5956 25.6128 51.5956V51.5956ZM25.6128 42.1138C24.7187 42.117 23.862 42.4878 23.2297 43.1454C22.5975 43.8029 22.2409 44.6938 22.2378 45.6237C22.2378 46.0863 22.3254 46.5443 22.4956 46.9716C22.6658 47.399 22.9152 47.7872 23.2297 48.1143C23.5442 48.4414 23.9176 48.7008 24.3285 48.8778C24.7394 49.0548 25.1798 49.1459 25.6245 49.1459C26.5207 49.1427 27.3792 48.7702 28.0118 48.11C28.6444 47.4498 28.9996 46.5558 28.9995 45.6237C28.9995 44.6896 28.6428 43.7937 28.0076 43.1332C27.3725 42.4726 26.511 42.1016 25.6128 42.1016V42.1138Z" fill="#FF5C00"/>
<path d="M54.4644 51.5956C52.9455 51.5924 51.4897 50.9635 50.4157 49.8465C49.3417 48.7296 48.737 47.2156 48.7339 45.636C48.737 44.0563 49.3417 42.5423 50.4157 41.4254C51.4897 40.3084 52.9455 39.6795 54.4644 39.6763C55.9832 39.6795 57.439 40.3084 58.513 41.4254C59.587 42.5423 60.1918 44.0563 60.1949 45.636C60.1949 47.2166 59.5911 48.7324 58.5164 49.8501C57.4418 50.9678 55.9842 51.5956 54.4644 51.5956V51.5956ZM54.4644 42.1138C53.5671 42.117 52.7075 42.4891 52.073 43.1489C51.4385 43.8088 51.0807 44.7028 51.0776 45.636C51.0807 46.5691 51.4385 47.4631 52.073 48.123C52.7075 48.7828 53.5671 49.1549 54.4644 49.1581C55.3626 49.1581 56.224 48.7871 56.8591 48.1265C57.4943 47.466 57.8511 46.5701 57.8511 45.636C57.8527 45.1724 57.7662 44.7131 57.5967 44.2843C57.4272 43.8556 57.1779 43.4659 56.8633 43.1375C56.5486 42.8092 56.1748 42.5486 55.7631 42.3709C55.3515 42.1931 54.9101 42.1016 54.4644 42.1016V42.1138Z" fill="#FF5C00"/>
<path d="M39.007 34.0213H19.249C18.9382 34.0213 18.6402 33.8929 18.4205 33.6643C18.2007 33.4358 18.0771 33.1258 18.0771 32.8025V12.2666C18.0771 11.9434 18.2007 11.6334 18.4205 11.4048C18.6402 11.1763 18.9382 11.0479 19.249 11.0479H39.007C39.3178 11.0479 39.6157 11.1763 39.8355 11.4048C40.0553 11.6334 40.1788 11.9434 40.1788 12.2666V32.8025C40.1788 33.1258 40.0553 33.4358 39.8355 33.6643C39.6157 33.8929 39.3178 34.0213 39.007 34.0213ZM20.4209 31.5838H37.8351V13.4854H20.4209V31.5838Z" fill="#FF5C00"/>
<path d="M62.5151 33.8751H42.7573C42.4465 33.8751 42.1485 33.7467 41.9287 33.5181C41.7089 33.2896 41.5854 32.9796 41.5854 32.6563V18.6895C41.5854 18.3662 41.7089 18.0562 41.9287 17.8277C42.1485 17.5991 42.4465 17.4707 42.7573 17.4707H62.5151C62.8259 17.4707 63.124 17.5991 63.3437 17.8277C63.5635 18.0562 63.687 18.3662 63.687 18.6895V32.6563C63.687 32.9796 63.5635 33.2896 63.3437 33.5181C63.124 33.7467 62.8259 33.8751 62.5151 33.8751ZM43.9292 31.4376H61.3432V19.9082H43.9292V31.4376Z" fill="#FF5C00"/>
<path d="M32.1284 19.7375H26.1284C25.8176 19.7375 25.5196 19.6091 25.2999 19.3806C25.0801 19.152 24.9565 18.842 24.9565 18.5188V12.2666C24.9565 11.9434 25.0801 11.6334 25.2999 11.4048C25.5196 11.1763 25.8176 11.0479 26.1284 11.0479H32.1284C32.4392 11.0479 32.7373 11.1763 32.9571 11.4048C33.1769 11.6334 33.3003 11.9434 33.3003 12.2666V18.5188C33.3003 18.842 33.1769 19.152 32.9571 19.3806C32.7373 19.6091 32.4392 19.7375 32.1284 19.7375ZM27.3003 17.3H30.9565V13.4854H27.3003V17.3Z" fill="#FF5C00"/>
<path d="M55.4018 25.6729H49.8706C49.5598 25.6729 49.2617 25.5445 49.0419 25.3159C48.8221 25.0874 48.6987 24.7774 48.6987 24.4541V18.6895C48.6987 18.3662 48.8221 18.0562 49.0419 17.8277C49.2617 17.5991 49.5598 17.4707 49.8706 17.4707H55.4018C55.7126 17.4707 56.0107 17.5991 56.2304 17.8277C56.4502 18.0562 56.5737 18.3662 56.5737 18.6895V24.442C56.5752 24.603 56.5461 24.7628 56.4879 24.9121C56.4297 25.0614 56.3436 25.1972 56.2347 25.3116C56.1257 25.4261 55.996 25.517 55.853 25.579C55.7101 25.641 55.5567 25.6729 55.4018 25.6729ZM51.0425 23.2354H54.2299V19.9082H51.0425V23.2354Z" fill="#FF5C00"/>
</svg>
