<?xml version="1.0" encoding="utf-8"?>
<!-- Generator: Adobe Illustrator 27.8.0, SVG Export Plug-In . SVG Version: 6.00 Build 0)  -->
<svg version="1.1" id="Layer_1" xmlns="http://www.w3.org/2000/svg" xmlns:xlink="http://www.w3.org/1999/xlink" x="0px" y="0px"
	 viewBox="0 0 133 113" style="enable-background:new 0 0 133 113;" xml:space="preserve">
<style type="text/css">
	.st0{fill:#FFFFFF;}
	.st1{fill:none;stroke:#F0F0F0;stroke-width:2;stroke-linecap:round;stroke-linejoin:round;stroke-miterlimit:10;}
	.st2{fill:none;stroke:#FF5C00;stroke-width:2;stroke-linecap:round;stroke-linejoin:round;stroke-miterlimit:10;}
	.st3{fill:#D0D0D0;stroke:#F0F0F0;stroke-width:2;stroke-miterlimit:10;}
	.st4{fill:none;stroke:#FF5C00;stroke-width:10;stroke-linecap:round;stroke-linejoin:round;stroke-miterlimit:10;}
	.st5{fill:none;stroke:#F0F0F0;stroke-width:10;stroke-linecap:round;stroke-linejoin:round;stroke-miterlimit:10;}
	.st6{fill:#FF5C00;stroke:#FFFFFF;stroke-width:4;stroke-miterlimit:10;}
	.st7{fill:none;stroke:#FFFFFF;stroke-width:2;stroke-linecap:round;stroke-linejoin:round;stroke-miterlimit:10;}
</style>
<g id="PhKH7S.tif">
	
		<image style="overflow:visible;enable-background:new    ;" width="1371" height="610" id="Layer_0" xlink:href="C0A0EE39.png"  transform="matrix(0.7192 0 0 0.7192 -154 931.2173)">
	</image>
</g>
<rect x="-31" y="1080" class="st0" width="147" height="109"/>
<rect x="210" y="1075" class="st0" width="215" height="109"/>
<rect x="498" y="1053" class="st0" width="225" height="126"/>
<g>
	<g>
		<g>
			<path class="st1" d="M64.4,1152.6v12.7c0,2.2-1.8,4-4,4H19.6c-2.2,0-4-1.8-4-4v-12.7"/>
			<path class="st1" d="M20.6,1129v-4.7c0-4,3.5-7.2,7.8-7.2h23.1c4.3,0,7.8,3.2,7.8,7.2v4.4"/>
			<path class="st1" d="M26.8,1144.9v10.6c0,1.1,0.9,2,2,2h22.7c1.1,0,2-0.9,2-2v-10.6c0-15.3,16.6-12.6,16.6-3.6
				c0,8.8-16.6,7.4-16.6,7.4h-4.9h-1.9H26.8c0,0-16.6,1.4-16.6-7.4C10.2,1132.3,26.8,1129.7,26.8,1144.9"/>
		</g>
		<g>
			<path class="st1" d="M87.3,1156.3h-9.6c-0.9,0-1.6,0.8-1.5,1.7l1.2,9.7c0.1,0.9,0.9,1.6,1.8,1.6h6.6c0.9,0,1.7-0.7,1.8-1.6
				l1.2-9.7C89,1157.1,88.3,1156.3,87.3,1156.3z"/>
			<path class="st1" d="M77.9,1152.4c-3.3,0-5.9-2.7-5.9-5.9c0-2.3,1.5-4.1,3.4-5.1c0,0,0.1,0,0.1-0.1l0,0c-0.1-0.4-0.1-0.8-0.1-1.2
				c0-3.3,2.7-5.9,5.9-5.9c2.5,0,4.6,1.5,5.5,3.7c3.4,0.5,6.1,3.4,6.1,7c0,3.9-3.2,7.1-7.1,7.1c-1.3,0-2.6-0.4-3.6-1
				c0,0-4.8-2.4-3.3-5.1c0.6-1.2,3.6-1.8,3.6,2.2c0,4.4,0,7.6,0,7.6"/>
		</g>
		<g>
			<rect x="51.2" y="1102.2" class="st1" width="9.9" height="9.9"/>
			<rect x="80.9" y="1104.6" class="st1" width="14.6" height="9.3"/>
			<rect x="66.1" y="1094.4" class="st1" width="9.9" height="15.6"/>
			<rect x="66.2" y="1114.9" class="st1" width="9.9" height="7.1"/>
		</g>
	</g>
	<line class="st1" x1="-2" y1="1169.3" x2="107.7" y2="1169.3"/>
</g>
<g>
	<g>
		<g>
			<path class="st2" d="M349.5,1109.5l10.1-8.5c0,0,5.6,4.4,10.1,8.2c2,1.7,0.6,4.4-1.2,4.7c-2,0.3-4.5-1.9-2.5-4.3"/>
			<polyline class="st2" points="369.7,1105.6 373.1,1101.8 385.1,1110.3 			"/>
			<path class="st2" d="M382,1118"/>
			<polyline class="st2" points="348.7,1113.9 348.7,1094.9 385.5,1094.9 385.5,1118 382,1118 			"/>
			<polyline class="st2" points="344.1,1114.7 344.1,1090.5 390.1,1090.5 390.1,1122.3 383.6,1122.3 			"/>
		</g>
		<g>
			<path class="st2" d="M385.9,1152.4v12.8c0,2.2-1.8,4.1-4.1,4.1h-80.1c-2.2,0-4.1-1.8-4.1-4.1v-12.8"/>
			<path class="st2" d="M302.9,1128.6v-4.7c0-4,3.5-7.2,7.9-7.2H334c4.3,0,7.9,3.2,7.9,7.2v24.6"/>
			<path class="st2" d="M380.9,1128.6v-4.7c0-4-3.5-7.2-7.9-7.2h-23.3c-4.3,0-7.9,3.2-7.9,7.2v24.6"/>
			<path class="st2" d="M309,1144.7v10.7c0,1.1,0.9,2.1,2,2.1h59.4c1.1,0,2-0.9,2-2.1v-10.7c0-15.4,16.8-12.7,16.8-3.6
				c0,8.9-16.8,7.5-16.8,7.5h-24.8h-13.9H309c0,0-16.8,1.4-16.8-7.5C292.3,1132,309,1129.3,309,1144.7"/>
		</g>
		<g>
			<path class="st2" d="M283,1152.1"/>
			<path class="st2" d="M277.7,1124.2H276l-2.2-0.1c-2.1-0.1-3.6-2.2-3-4.2l5.1-14.4c0.4-1.4,1.7-2.3,3.1-2.3l1.7,0l2.5,0h0.7
				c1.4,0,2.7,0.9,3.1,2.3l5.1,14.5c0.6,2.1-0.9,4.2-3,4.2c-0.9,0,0.5,0-0.4,0h-2.3c-1.6,0-3.5-0.2-4.1-0.5c0,0-7-3.6-4.9-7.5
				c1-1.7,5.4-2.6,5.4,3.3c0,3,0,23.7,0,27.8"/>
			<g>
				<path class="st2" d="M289.4,1169.3h-12.8v-0.3c0-3,2.4-5.4,5.4-5.4h2c3,0,5.4,2.4,5.4,5.4L289.4,1169.3L289.4,1169.3z"/>
				<path class="st2" d="M283,1162.6"/>
				<path class="st2" d="M283,1134.6"/>
			</g>
			<path class="st2" d="M283,1143.3c0,4.8,0,20.3,0,20.3"/>
		</g>
	</g>
	<line class="st2" x1="265.5" y1="1169.3" x2="398.3" y2="1169.3"/>
</g>
<g>
	<g>
		<g>
			<g>
				<path class="st1" d="M546.6,1127.6v-4.7c0-4,3.5-7.2,7.9-7.2h23.3c4.3,0,7.9,3.2,7.9,7.2v24.6"/>
				<path class="st1" d="M624.6,1127.6v-4.7c0-4-3.5-7.2-7.9-7.2h-23.3c-4.3,0-7.9,3.2-7.9,7.2v24.6"/>
				<path class="st1" d="M663.6,1127.6v-4.7c0-4-3.5-7.2-7.9-7.2h-23.3c-4.3,0-7.9,3.2-7.9,7.2v24.6"/>
			</g>
			<g>
				<path class="st1" d="M674.5,1152.3v12.8c0,2.2-1.8,4.1-4.1,4.1H541.8c-2.2,0-4.1-1.8-4.1-4.1v-12.8"/>
				<path class="st1" d="M549.1,1144.6v10.7c0,1.1,0.9,2.1,2,2.1H659c1.1,0,2-0.9,2-2.1v-10.7c0-15.4,16.8-12.7,16.8-3.6
					c0,8.9-16.8,7.5-16.8,7.5h-4h-13.8h-94.1c0,0-16.8,1.4-16.8-7.5C532.3,1131.8,549.1,1129.2,549.1,1144.6"/>
			</g>
		</g>
		<path class="st1" d="M546.7,1100.2"/>
		<path class="st1" d="M526.5,1169.2v-65.6c0-16.4,12.2-29.7,27.3-29.7c9.6,0,18,5.4,22.9,13.5"/>
		<path class="st1" d="M593.5,1106.3c0-9.9-7.3-17.9-16.2-17.9c-9,0-16.2,8-16.2,17.9H593.5z"/>
		<g>
			<rect x="619.3" y="1088.3" class="st1" width="9.9" height="9.9"/>
			<rect x="649" y="1090.7" class="st1" width="14.6" height="9.3"/>
			<rect x="634.1" y="1080.5" class="st1" width="9.9" height="15.6"/>
			<rect x="634.3" y="1101.1" class="st1" width="9.9" height="7.1"/>
		</g>
		<g>
			<g>
				<g>
					<line class="st1" x1="687.2" y1="1163.7" x2="687.2" y2="1169.2"/>
					<line class="st1" x1="711.7" y1="1163.7" x2="711.7" y2="1169.2"/>
				</g>
				<rect x="682.6" y="1150.6" class="st1" width="33.7" height="12.6"/>
				<circle class="st3" cx="699.4" cy="1156.9" r="1.1"/>
			</g>
			<g>
				<path class="st1" d="M703.7,1145.2h-8.4c-0.8,0-1.4,0.7-1.3,1.5l1.1,2.5c0.1,0.8,0.8,1.4,1.6,1.4h5.8c0.8,0,1.5-0.6,1.6-1.4
					l1.1-2.5C705.2,1145.9,704.5,1145.2,703.7,1145.2z"/>
				<path class="st1" d="M695.5,1141.8c-2.9,0-5.2-2.3-5.2-5.2c0-2,1.3-3.6,3-4.4c0,0,0.1,0,0.1-0.1l0,0c-0.1-0.3-0.1-0.7-0.1-1.1
					c0-2.9,2.3-5.2,5.2-5.2c2.2,0,4,1.3,4.8,3.2c3,0.4,5.4,3,5.4,6.2c0,3.4-2.8,6.2-6.2,6.2c-1.2,0-2.2-0.3-3.2-0.9
					c0,0-4.2-2.1-2.9-4.4c0.6-1,3.2-1.6,3.2,1.9c0,3.9,0,6.7,0,6.7"/>
			</g>
		</g>
	</g>
	<line class="st1" x1="518.8" y1="1169.3" x2="724" y2="1169.3"/>
</g>
<rect x="7" y="1234" class="st0" width="745" height="74"/>
<line class="st4" x1="30" y1="1275.3" x2="317.5" y2="1275.3"/>
<line class="st5" x1="349" y1="1275.3" x2="636.5" y2="1275.3"/>
<g>
	
		<image style="overflow:visible;opacity:0.1;enable-background:new    ;" width="63" height="62" xlink:href="C0A0EE3B.png"  transform="matrix(1 0 0 1 302 1246)">
	</image>
	<g>
		<g>
			<circle class="st6" cx="333.4" cy="1274.9" r="16.9"/>
		</g>
	</g>
</g>
<g>
	<g>
		<g>
			<path class="st2" d="M78,84.9v12.7c0,2.2-1.8,4-4,4H33.2c-2.2,0-4-1.8-4-4V84.9"/>
			<path class="st2" d="M34.3,61.3v-4.7c0-4,3.5-7.2,7.8-7.2h23.1c4.3,0,7.8,3.2,7.8,7.2V61"/>
			<path class="st2" d="M40.4,77.3v10.6c0,1.1,0.9,2,2,2h22.7c1.1,0,2-0.9,2-2V77.3c0-15.3,16.6-12.6,16.6-3.6
				c0,8.8-16.6,7.4-16.6,7.4h-4.9h-1.9H40.4c0,0-16.6,1.4-16.6-7.4C23.8,64.7,40.4,62,40.4,77.3"/>
		</g>
		<g>
			<path class="st2" d="M101,88.6h-9.6c-0.9,0-1.6,0.8-1.5,1.7l1.2,9.7c0.1,0.9,0.9,1.6,1.8,1.6h6.6c0.9,0,1.7-0.7,1.8-1.6l1.2-9.7
				C102.6,89.4,101.9,88.6,101,88.6z"/>
			<path class="st2" d="M91.6,84.7c-3.3,0-5.9-2.7-5.9-5.9c0-2.3,1.5-4.1,3.4-5.1c0,0,0.1,0,0.1-0.1l0,0c-0.1-0.4-0.1-0.8-0.1-1.2
				c0-3.3,2.7-5.9,5.9-5.9c2.5,0,4.6,1.5,5.5,3.7c3.4,0.5,6.1,3.4,6.1,7c0,3.9-3.2,7.1-7.1,7.1c-1.3,0-2.6-0.4-3.6-1
				c0,0-4.8-2.4-3.3-5.1c0.6-1.2,3.6-1.8,3.6,2.2c0,4.4,0,7.6,0,7.6"/>
		</g>
		<g>
			<rect x="64.9" y="34.5" class="st2" width="9.9" height="9.9"/>
			<rect x="94.6" y="36.9" class="st2" width="14.6" height="9.3"/>
			<rect x="79.7" y="26.7" class="st2" width="9.9" height="15.5"/>
			<rect x="79.9" y="47.2" class="st2" width="9.9" height="7"/>
		</g>
	</g>
	<line class="st2" x1="11.7" y1="101.7" x2="121.3" y2="101.7"/>
</g>
<g>
	<g>
		<g>
			<path class="st7" d="M250.1,41.8l10.1-8.5c0,0,5.6,4.4,10.1,8.2c2,1.7,0.6,4.4-1.2,4.7c-2,0.3-4.5-1.9-2.5-4.3"/>
			<polyline class="st7" points="270.3,37.9 273.8,34.2 285.7,42.6 			"/>
			<path class="st7" d="M282.6,50.3"/>
			<polyline class="st7" points="249.3,46.2 249.3,27.2 286.1,27.2 286.1,50.3 282.6,50.3 			"/>
			<polyline class="st7" points="244.7,47 244.7,22.9 290.7,22.9 290.7,54.7 284.2,54.7 			"/>
		</g>
		<g>
			<path class="st7" d="M286.5,84.7v12.9c0,2.2-1.8,4.1-4.1,4.1h-80.1c-2.2,0-4.1-1.8-4.1-4.1V84.7"/>
			<path class="st7" d="M203.5,60.9v-4.7c0-4,3.5-7.2,7.9-7.2h23.3c4.3,0,7.9,3.2,7.9,7.2v24.6"/>
			<path class="st7" d="M281.5,60.9v-4.7c0-4-3.5-7.2-7.9-7.2h-23.3c-4.3,0-7.9,3.2-7.9,7.2v24.6"/>
			<path class="st7" d="M209.7,77v10.7c0,1.1,0.9,2.1,2.1,2.1h59.4c1.1,0,2-0.9,2-2.1V77c0-15.4,16.8-12.7,16.8-3.6
				c0,8.9-16.8,7.5-16.8,7.5h-24.8h-13.9h-24.8c0,0-16.8,1.4-16.8-7.5C192.9,64.3,209.7,61.6,209.7,77"/>
		</g>
		<g>
			<path class="st7" d="M183.6,84.4"/>
			<path class="st7" d="M178.4,56.5h-1.7l-2.2,0c-2.1-0.1-3.6-2.2-3-4.2l5.1-14.4c0.4-1.4,1.7-2.3,3.1-2.3l1.7,0l2.5,0h0.7
				c1.4,0,2.7,0.9,3.1,2.3l5.1,14.5c0.6,2.1-0.9,4.2-3,4.2c-0.9,0,0.4,0-0.4,0h-2.3c-1.6,0-3.5-0.2-4.1-0.5c0,0-7-3.6-4.9-7.5
				c0.9-1.7,5.4-2.6,5.4,3.3c0,3,0,23.7,0,27.8"/>
			<g>
				<path class="st7" d="M190,101.7h-12.8v-0.3c0-3,2.4-5.4,5.4-5.4h2c3,0,5.4,2.4,5.4,5.4V101.7z"/>
				<path class="st7" d="M183.6,95"/>
				<path class="st7" d="M183.6,66.9"/>
			</g>
			<path class="st7" d="M183.6,75.6c0,4.8,0,20.3,0,20.3"/>
		</g>
	</g>
	<line class="st7" x1="166.1" y1="101.7" x2="298.9" y2="101.7"/>
</g>
<g>
	<g>
		<g>
			<g>
				<path class="st1" d="M361.2,59.9v-4.7c0-4,3.5-7.2,7.9-7.2h23.3c4.3,0,7.9,3.2,7.9,7.2v24.6"/>
				<path class="st1" d="M439.2,59.9v-4.7c0-4-3.5-7.2-7.9-7.2h-23.3c-4.3,0-7.9,3.2-7.9,7.2v24.6"/>
				<path class="st1" d="M478.2,59.9v-4.7c0-4-3.5-7.2-7.9-7.2h-23.3c-4.3,0-7.9,3.2-7.9,7.2v24.6"/>
			</g>
			<g>
				<path class="st1" d="M489.1,84.6v12.8c0,2.2-1.8,4.1-4.1,4.1H356.5c-2.2,0-4.1-1.8-4.1-4.1V84.6"/>
				<path class="st1" d="M363.7,76.9v10.7c0,1.1,0.9,2.1,2,2.1h107.9c1.1,0,2-0.9,2-2.1V76.9c0-15.4,16.8-12.7,16.8-3.6
					c0,8.9-16.8,7.5-16.8,7.5h-4h-13.9h-94.1c0,0-16.8,1.4-16.8-7.5C347,64.2,363.7,61.5,363.7,76.9"/>
			</g>
		</g>
		<path class="st1" d="M361.3,32.5"/>
		<path class="st1" d="M341.1,101.5V36c0-16.4,12.2-29.7,27.3-29.7c9.6,0,18,5.4,22.9,13.5"/>
		<path class="st1" d="M408.1,38.6c0-9.9-7.3-17.9-16.2-17.9c-9,0-16.2,8-16.2,17.9H408.1z"/>
		<g>
			<rect x="433.9" y="20.6" class="st1" width="9.9" height="9.9"/>
			<rect x="463.6" y="23" class="st1" width="14.6" height="9.3"/>
			<rect x="448.8" y="12.9" class="st1" width="9.9" height="15.6"/>
			<rect x="448.9" y="33.4" class="st1" width="9.9" height="7"/>
		</g>
		<g>
			<g>
				<g>
					<line class="st1" x1="501.8" y1="96" x2="501.8" y2="101.5"/>
					<line class="st1" x1="526.3" y1="96" x2="526.3" y2="101.5"/>
				</g>
				<rect x="497.2" y="82.9" class="st1" width="33.7" height="12.6"/>
				<circle class="st3" cx="514.1" cy="89.2" r="1.1"/>
			</g>
			<g>
				<path class="st1" d="M518.4,77.6h-8.4c-0.8,0-1.4,0.7-1.3,1.5l1.1,2.5c0.1,0.8,0.8,1.4,1.6,1.4h5.8c0.8,0,1.5-0.6,1.6-1.4
					l1.1-2.5C519.8,78.3,519.2,77.6,518.4,77.6z"/>
				<path class="st1" d="M510.1,74.2c-2.9,0-5.2-2.3-5.2-5.2c0-2,1.3-3.6,3-4.4c0,0,0.1,0,0.1-0.1l0,0c-0.1-0.3-0.1-0.7-0.1-1
					c0-2.9,2.3-5.2,5.2-5.2c2.2,0,4,1.3,4.8,3.2c3,0.4,5.4,3,5.4,6.2c0,3.4-2.8,6.2-6.2,6.2c-1.2,0-2.2-0.3-3.2-0.9
					c0,0-4.2-2.1-2.9-4.4c0.6-1,3.2-1.6,3.2,1.9c0,3.9,0,6.7,0,6.7"/>
			</g>
		</g>
	</g>
	<line class="st1" x1="333.4" y1="101.7" x2="538.6" y2="101.7"/>
</g>
</svg>
