<?xml version="1.0" encoding="utf-8"?>
<!-- Generator: Adobe Illustrator 27.8.0, SVG Export Plug-In . SVG Version: 6.00 Build 0)  -->
<svg version="1.1" id="Layer_1" xmlns="http://www.w3.org/2000/svg" xmlns:xlink="http://www.w3.org/1999/xlink" x="0px" y="0px"
	 viewBox="0 0 228 113" style="enable-background:new 0 0 228 113;" xml:space="preserve">
<style type="text/css">
	.st0{fill:#FFFFFF;}
	.st1{fill:none;stroke:#F0F0F0;stroke-width:2;stroke-linecap:round;stroke-linejoin:round;stroke-miterlimit:10;}
	.st2{fill:none;stroke:#FF5C00;stroke-width:2;stroke-linecap:round;stroke-linejoin:round;stroke-miterlimit:10;}
	.st3{fill:#D0D0D0;stroke:#F0F0F0;stroke-width:2;stroke-miterlimit:10;}
	.st4{fill:none;stroke:#FF5C00;stroke-width:10;stroke-linecap:round;stroke-linejoin:round;stroke-miterlimit:10;}
	.st5{fill:none;stroke:#F0F0F0;stroke-width:10;stroke-linecap:round;stroke-linejoin:round;stroke-miterlimit:10;}
	.st6{fill:#FF5C00;stroke:#FFFFFF;stroke-width:4;stroke-miterlimit:10;}
	.st7{fill:none;stroke:#FFFFFF;stroke-width:2;stroke-linecap:round;stroke-linejoin:round;stroke-miterlimit:10;}
	.st8{fill:#D0D0D0;stroke:#FF5C00;stroke-width:2;stroke-miterlimit:10;}
</style>
<g id="PhKH7S.tif">
	
		<image style="overflow:visible;enable-background:new    ;" width="1371" height="610" id="Layer_0" xlink:href="48452DA0.png"  transform="matrix(0.7192 0 0 0.7192 -476 931.2173)">
	</image>
</g>
<rect x="-353" y="1080" class="st0" width="147" height="109"/>
<rect x="-112" y="1075" class="st0" width="215" height="109"/>
<rect x="176" y="1053" class="st0" width="225" height="126"/>
<g>
	<g>
		<g>
			<path class="st1" d="M-257.6,1152.6v12.7c0,2.2-1.8,4-4,4h-40.8c-2.2,0-4-1.8-4-4v-12.7"/>
			<path class="st1" d="M-301.4,1129v-4.7c0-4,3.5-7.2,7.8-7.2h23.1c4.3,0,7.8,3.2,7.8,7.2v4.4"/>
			<path class="st1" d="M-295.2,1144.9v10.6c0,1.1,0.9,2,2,2h22.7c1.1,0,2-0.9,2-2v-10.6c0-15.3,16.6-12.6,16.6-3.6
				c0,8.8-16.6,7.4-16.6,7.4h-4.9h-1.9h-19.9c0,0-16.6,1.4-16.6-7.4C-311.8,1132.3-295.2,1129.7-295.2,1144.9"/>
		</g>
		<g>
			<path class="st1" d="M-234.6,1156.3h-9.6c-0.9,0-1.6,0.8-1.5,1.7l1.2,9.7c0.1,0.9,0.9,1.6,1.8,1.6h6.6c0.9,0,1.7-0.7,1.8-1.6
				l1.2-9.7C-233,1157.1-233.7,1156.3-234.6,1156.3z"/>
			<path class="st1" d="M-244.1,1152.4c-3.3,0-5.9-2.7-5.9-5.9c0-2.3,1.5-4.1,3.4-5.1c0,0,0.1,0,0.1-0.1l0,0
				c-0.1-0.4-0.1-0.8-0.1-1.2c0-3.3,2.7-5.9,5.9-5.9c2.5,0,4.6,1.5,5.5,3.7c3.4,0.5,6.1,3.4,6.1,7c0,3.9-3.2,7.1-7.1,7.1
				c-1.3,0-2.6-0.4-3.6-1c0,0-4.8-2.4-3.3-5.1c0.6-1.2,3.6-1.8,3.6,2.2c0,4.4,0,7.6,0,7.6"/>
		</g>
		<g>
			<rect x="-270.8" y="1102.2" class="st1" width="9.9" height="9.9"/>
			<rect x="-241.1" y="1104.6" class="st1" width="14.6" height="9.3"/>
			<rect x="-255.9" y="1094.4" class="st1" width="9.9" height="15.6"/>
			<rect x="-255.8" y="1114.9" class="st1" width="9.9" height="7.1"/>
		</g>
	</g>
	<line class="st1" x1="-324" y1="1169.3" x2="-214.3" y2="1169.3"/>
</g>
<g>
	<g>
		<g>
			<path class="st2" d="M27.5,1109.5l10.1-8.5c0,0,5.6,4.4,10.1,8.2c2,1.7,0.6,4.4-1.2,4.7c-2,0.3-4.5-1.9-2.5-4.3"/>
			<polyline class="st2" points="47.7,1105.6 51.1,1101.8 63.1,1110.3 			"/>
			<path class="st2" d="M60,1118"/>
			<polyline class="st2" points="26.7,1113.9 26.7,1094.9 63.5,1094.9 63.5,1118 60,1118 			"/>
			<polyline class="st2" points="22.1,1114.7 22.1,1090.5 68.1,1090.5 68.1,1122.3 61.6,1122.3 			"/>
		</g>
		<g>
			<path class="st2" d="M63.9,1152.4v12.8c0,2.2-1.8,4.1-4.1,4.1h-80.1c-2.2,0-4.1-1.8-4.1-4.1v-12.8"/>
			<path class="st2" d="M-19.1,1128.6v-4.7c0-4,3.5-7.2,7.9-7.2H12c4.3,0,7.9,3.2,7.9,7.2v24.6"/>
			<path class="st2" d="M58.9,1128.6v-4.7c0-4-3.5-7.2-7.9-7.2H27.8c-4.3,0-7.9,3.2-7.9,7.2v24.6"/>
			<path class="st2" d="M-13,1144.7v10.7c0,1.1,0.9,2.1,2.1,2.1h59.4c1.1,0,2-0.9,2-2.1v-10.7c0-15.4,16.7-12.7,16.7-3.6
				c0,8.9-16.8,7.5-16.8,7.5H25.7H11.9H-13c0,0-16.8,1.4-16.8-7.5C-29.7,1132-13,1129.3-13,1144.7"/>
		</g>
		<g>
			<path class="st2" d="M-39,1152.1"/>
			<path class="st2" d="M-44.3,1124.2H-46l-2.2-0.1c-2.2-0.1-3.6-2.2-3-4.2l5.1-14.4c0.4-1.4,1.7-2.3,3.1-2.3l1.7,0l2.5,0h0.7
				c1.4,0,2.7,0.9,3.1,2.3l5.1,14.5c0.6,2.1-0.9,4.2-3,4.2c-0.9,0,0.5,0-0.4,0h-2.3c-1.6,0-3.5-0.2-4.1-0.5c0,0-7-3.6-4.9-7.5
				c1-1.7,5.4-2.6,5.4,3.3c0,3,0,23.7,0,27.8"/>
			<g>
				<path class="st2" d="M-32.6,1169.3h-12.8v-0.3c0-3,2.4-5.4,5.4-5.4h2c3,0,5.4,2.4,5.4,5.4L-32.6,1169.3L-32.6,1169.3z"/>
				<path class="st2" d="M-39,1162.6"/>
				<path class="st2" d="M-39,1134.6"/>
			</g>
			<path class="st2" d="M-39,1143.3c0,4.8,0,20.3,0,20.3"/>
		</g>
	</g>
	<line class="st2" x1="-56.5" y1="1169.3" x2="76.3" y2="1169.3"/>
</g>
<g>
	<g>
		<g>
			<g>
				<path class="st1" d="M224.6,1127.6v-4.7c0-4,3.5-7.2,7.9-7.2h23.3c4.3,0,7.9,3.2,7.9,7.2v24.6"/>
				<path class="st1" d="M302.6,1127.6v-4.7c0-4-3.5-7.2-7.9-7.2h-23.3c-4.3,0-7.9,3.2-7.9,7.2v24.6"/>
				<path class="st1" d="M341.6,1127.6v-4.7c0-4-3.5-7.2-7.9-7.2h-23.3c-4.3,0-7.9,3.2-7.9,7.2v24.6"/>
			</g>
			<g>
				<path class="st1" d="M352.5,1152.3v12.8c0,2.2-1.8,4.1-4.1,4.1H219.8c-2.2,0-4.1-1.8-4.1-4.1v-12.8"/>
				<path class="st1" d="M227.1,1144.6v10.7c0,1.1,0.9,2.1,2.1,2.1H337c1.1,0,2-0.9,2-2.1v-10.7c0-15.4,16.8-12.7,16.8-3.6
					c0,8.9-16.8,7.5-16.8,7.5h-4h-13.8h-94.1c0,0-16.8,1.4-16.8-7.5C210.3,1131.8,227.1,1129.2,227.1,1144.6"/>
			</g>
		</g>
		<path class="st1" d="M224.7,1100.2"/>
		<path class="st1" d="M204.5,1169.2v-65.6c0-16.4,12.2-29.7,27.3-29.7c9.6,0,18,5.4,22.9,13.5"/>
		<path class="st1" d="M271.5,1106.3c0-9.9-7.3-17.9-16.2-17.9s-16.2,8-16.2,17.9H271.5z"/>
		<g>
			<rect x="297.3" y="1088.3" class="st1" width="9.9" height="9.9"/>
			<rect x="327" y="1090.7" class="st1" width="14.6" height="9.3"/>
			<rect x="312.1" y="1080.5" class="st1" width="9.9" height="15.6"/>
			<rect x="312.3" y="1101.1" class="st1" width="9.9" height="7.1"/>
		</g>
		<g>
			<g>
				<g>
					<line class="st1" x1="365.2" y1="1163.7" x2="365.2" y2="1169.2"/>
					<line class="st1" x1="389.7" y1="1163.7" x2="389.7" y2="1169.2"/>
				</g>
				<rect x="360.6" y="1150.6" class="st1" width="33.6" height="12.6"/>
				<circle class="st3" cx="377.4" cy="1156.9" r="1.1"/>
			</g>
			<g>
				<path class="st1" d="M381.7,1145.2h-8.4c-0.8,0-1.4,0.7-1.3,1.5l1.1,2.5c0.1,0.8,0.8,1.4,1.6,1.4h5.8c0.8,0,1.5-0.6,1.6-1.4
					l1.1-2.5C383.2,1145.9,382.5,1145.2,381.7,1145.2z"/>
				<path class="st1" d="M373.5,1141.8c-2.9,0-5.2-2.3-5.2-5.2c0-2,1.3-3.6,3-4.4c0,0,0.1,0,0.1-0.1l0,0c-0.1-0.3-0.1-0.7-0.1-1.1
					c0-2.9,2.3-5.2,5.2-5.2c2.2,0,4,1.3,4.8,3.2c3,0.4,5.4,3,5.4,6.2c0,3.4-2.8,6.2-6.2,6.2c-1.2,0-2.2-0.3-3.2-0.9
					c0,0-4.2-2.1-2.9-4.4c0.6-1,3.2-1.6,3.2,1.9c0,3.9,0,6.7,0,6.7"/>
			</g>
		</g>
	</g>
	<line class="st1" x1="196.8" y1="1169.3" x2="402" y2="1169.3"/>
</g>
<rect x="-315" y="1234" class="st0" width="745" height="74"/>
<line class="st4" x1="-292" y1="1275.3" x2="-4.5" y2="1275.3"/>
<line class="st5" x1="27" y1="1275.3" x2="314.5" y2="1275.3"/>
<g>
	
		<image style="overflow:visible;opacity:0.1;enable-background:new    ;" width="63" height="62" xlink:href="48452DA1.png"  transform="matrix(1 0 0 1 -20 1246)">
	</image>
	<g>
		<g>
			
				<ellipse transform="matrix(1 -4.950317e-03 4.950317e-03 1 -6.311 7.225283e-02)" class="st6" cx="11.4" cy="1274.9" rx="16.9" ry="16.9"/>
		</g>
	</g>
</g>
<g>
	<g>
		<g>
			<path class="st1" d="M-244,84.9v12.7c0,2.2-1.8,4-4,4h-40.8c-2.2,0-4-1.8-4-4V84.9"/>
			<path class="st1" d="M-287.7,61.3v-4.7c0-4,3.5-7.2,7.8-7.2h23.1c4.3,0,7.8,3.2,7.8,7.2V61"/>
			<path class="st1" d="M-281.6,77.3v10.6c0,1.1,0.9,2,2,2h22.7c1.1,0,2-0.9,2-2V77.3c0-15.3,16.6-12.6,16.6-3.6
				c0,8.8-16.6,7.4-16.6,7.4h-4.9h-1.9h-19.9c0,0-16.6,1.4-16.6-7.4C-298.2,64.7-281.6,62-281.6,77.3"/>
		</g>
		<g>
			<path class="st1" d="M-221,88.6h-9.6c-0.9,0-1.6,0.8-1.5,1.7l1.2,9.7c0.1,0.9,0.9,1.6,1.8,1.6h6.6c0.9,0,1.7-0.7,1.8-1.6l1.2-9.7
				C-219.4,89.4-220.1,88.6-221,88.6z"/>
			<path class="st1" d="M-230.4,84.7c-3.3,0-5.9-2.7-5.9-5.9c0-2.3,1.5-4.1,3.4-5.1c0,0,0.1,0,0.1-0.1l0,0c-0.1-0.4-0.1-0.8-0.1-1.2
				c0-3.3,2.7-5.9,5.9-5.9c2.5,0,4.6,1.5,5.5,3.7c3.4,0.5,6.1,3.4,6.1,7c0,3.9-3.2,7.1-7.1,7.1c-1.3,0-2.6-0.4-3.6-1
				c0,0-4.8-2.4-3.3-5.1c0.6-1.2,3.6-1.8,3.6,2.2c0,4.4,0,7.6,0,7.6"/>
		</g>
		<g>
			<rect x="-257.1" y="34.5" class="st1" width="9.9" height="9.9"/>
			<rect x="-227.4" y="36.9" class="st1" width="14.6" height="9.3"/>
			<rect x="-242.3" y="26.7" class="st1" width="9.9" height="15.5"/>
			<rect x="-242.1" y="47.2" class="st1" width="9.9" height="7"/>
		</g>
	</g>
	<line class="st1" x1="-310.3" y1="101.7" x2="-200.7" y2="101.7"/>
</g>
<g>
	<g>
		<g>
			<path class="st7" d="M-71.9,41.8l10.1-8.5c0,0,5.6,4.4,10.1,8.2c2,1.7,0.6,4.4-1.2,4.7c-2,0.3-4.5-1.9-2.5-4.3"/>
			<polyline class="st7" points="-51.7,37.9 -48.2,34.2 -36.3,42.6 			"/>
			<path class="st7" d="M-39.4,50.3"/>
			<polyline class="st7" points="-72.7,46.2 -72.7,27.2 -35.9,27.2 -35.9,50.3 -39.4,50.3 			"/>
			<polyline class="st7" points="-77.3,47 -77.3,22.9 -31.3,22.9 -31.3,54.7 -37.8,54.7 			"/>
		</g>
		<g>
			<path class="st7" d="M-35.5,84.7v12.9c0,2.2-1.8,4.1-4.1,4.1h-80.1c-2.2,0-4.1-1.8-4.1-4.1V84.7"/>
			<path class="st7" d="M-118.5,60.9v-4.7c0-4,3.5-7.2,7.9-7.2h23.3c4.3,0,7.9,3.2,7.9,7.2v24.6"/>
			<path class="st7" d="M-40.5,60.9v-4.7c0-4-3.5-7.2-7.9-7.2h-23.3c-4.3,0-7.9,3.2-7.9,7.2v24.6"/>
			<path class="st7" d="M-112.3,77v10.7c0,1.1,0.9,2.1,2.1,2.1h59.4c1.1,0,2-0.9,2-2.1V77c0-15.4,16.8-12.7,16.8-3.6
				c0,8.9-16.8,7.5-16.8,7.5h-24.8h-13.8h-24.8c0,0-16.8,1.4-16.8-7.5C-129.1,64.3-112.3,61.6-112.3,77"/>
		</g>
		<g>
			<path class="st7" d="M-138.4,84.4"/>
			<path class="st7" d="M-143.6,56.5h-1.7l-2.2,0c-2.1-0.1-3.6-2.2-3-4.2l5.1-14.4c0.4-1.4,1.7-2.3,3.1-2.3l1.7,0l2.5,0h0.7
				c1.4,0,2.7,0.9,3.1,2.3l5.1,14.5c0.6,2.1-0.9,4.2-3,4.2c-0.9,0,0.4,0-0.4,0h-2.3c-1.6,0-3.5-0.2-4.1-0.5c0,0-7-3.6-4.9-7.5
				c0.9-1.7,5.4-2.6,5.4,3.3c0,3,0,23.7,0,27.8"/>
			<g>
				<path class="st7" d="M-132,101.7h-12.8v-0.3c0-3,2.4-5.4,5.4-5.4h2c3,0,5.4,2.4,5.4,5.4V101.7z"/>
				<path class="st7" d="M-138.4,95"/>
				<path class="st7" d="M-138.4,66.9"/>
			</g>
			<path class="st7" d="M-138.4,75.6c0,4.8,0,20.3,0,20.3"/>
		</g>
	</g>
	<line class="st7" x1="-155.9" y1="101.7" x2="-23.1" y2="101.7"/>
</g>
<g>
	<g>
		<g>
			<g>
				<path class="st2" d="M39.2,59.9v-4.7c0-4,3.5-7.2,7.9-7.2h23.3c4.3,0,7.9,3.2,7.9,7.2v24.6"/>
				<path class="st2" d="M117.2,59.9v-4.7c0-4-3.5-7.2-7.9-7.2H86.1c-4.3,0-7.9,3.2-7.9,7.2v24.6"/>
				<path class="st2" d="M156.2,59.9v-4.7c0-4-3.5-7.2-7.9-7.2h-23.3c-4.3,0-7.9,3.2-7.9,7.2v24.6"/>
			</g>
			<g>
				<path class="st2" d="M167.1,84.6v12.8c0,2.2-1.8,4.1-4.1,4.1H34.5c-2.2,0-4.1-1.8-4.1-4.1V84.6"/>
				<path class="st2" d="M41.7,76.9v10.7c0,1.1,0.9,2.1,2,2.1h107.9c1.1,0,2.1-0.9,2.1-2.1V76.9c0-15.4,16.8-12.7,16.8-3.6
					c0,8.9-16.8,7.5-16.8,7.5h-4h-13.9H41.7c0,0-16.8,1.4-16.8-7.5C25,64.2,41.7,61.5,41.7,76.9"/>
			</g>
		</g>
		<path class="st2" d="M39.3,32.5"/>
		<path class="st2" d="M19.1,101.5V36c0-16.4,12.2-29.7,27.3-29.7c9.6,0,18,5.4,22.9,13.5"/>
		<path class="st2" d="M86.1,38.6c0-9.9-7.3-17.9-16.2-17.9s-16.2,8-16.2,17.9H86.1z"/>
		<g>
			<rect x="111.9" y="20.6" class="st2" width="9.9" height="9.9"/>
			<rect x="141.6" y="23" class="st2" width="14.6" height="9.3"/>
			<rect x="126.8" y="12.9" class="st2" width="9.9" height="15.6"/>
			<rect x="126.9" y="33.4" class="st2" width="9.9" height="7"/>
		</g>
		<g>
			<g>
				<g>
					<line class="st2" x1="179.8" y1="96" x2="179.8" y2="101.5"/>
					<line class="st2" x1="204.3" y1="96" x2="204.3" y2="101.5"/>
				</g>
				<rect x="175.2" y="82.9" class="st2" width="33.7" height="12.6"/>
				<circle class="st8" cx="192.1" cy="89.2" r="1.1"/>
			</g>
			<g>
				<path class="st2" d="M196.4,77.6h-8.4c-0.8,0-1.4,0.7-1.3,1.5l1.1,2.5c0.1,0.8,0.8,1.4,1.6,1.4h5.8c0.8,0,1.5-0.6,1.6-1.4
					l1.1-2.5C197.8,78.3,197.2,77.6,196.4,77.6z"/>
				<path class="st2" d="M188.1,74.2c-2.9,0-5.2-2.3-5.2-5.2c0-2,1.3-3.6,3-4.4c0,0,0.1,0,0.1-0.1l0,0c-0.1-0.3-0.1-0.7-0.1-1
					c0-2.9,2.3-5.2,5.2-5.2c2.2,0,4,1.3,4.8,3.2c3,0.4,5.4,3,5.4,6.2c0,3.4-2.8,6.2-6.2,6.2c-1.2,0-2.2-0.3-3.2-0.9
					c0,0-4.2-2.1-2.9-4.4c0.6-1,3.2-1.6,3.2,1.9c0,3.9,0,6.7,0,6.7"/>
			</g>
		</g>
	</g>
	<line class="st2" x1="11.4" y1="101.7" x2="216.6" y2="101.7"/>
</g>
</svg>
