<svg width="1183" height="450" viewBox="0 0 1183 450" fill="none" xmlns="http://www.w3.org/2000/svg">
<path d="M968 307C1086.74 307 1183 210.741 1183 92C1183 59.0814 1175.6 27.8908 1162.38 0H773.622C760.398 27.8908 753 59.0814 753 92C753 210.741 849.259 307 968 307Z" fill="#FF5C00"/>
<path d="M255.999 174C140.848 174 47.5 267.349 47.5 382.5C47.5 403.669 50.6473 424.06 56.4836 443.254C57.1724 445.519 57.8988 447.768 58.662 450H9.5172C3.63449 428.474 0.5 405.835 0.5 382.5C0.5 241.391 114.891 127 255.999 127C397.108 127 511.499 241.391 511.499 382.5C511.499 405.839 508.363 428.477 502.482 450H453.337C460.566 428.859 464.499 406.163 464.499 382.5C464.499 267.349 371.15 174 255.999 174Z" fill="#FF5C00"/>
</svg>
